<?xml version="1.0" encoding="utf-8"?>
<!-- Generator: Adobe Illustrator 21.1.0, SVG Export Plug-In . SVG Version: 6.00 Build 0)  -->
<svg version="1.1" id="Capa_1" xmlns="http://www.w3.org/2000/svg" xmlns:xlink="http://www.w3.org/1999/xlink" x="0px" y="0px"
	 viewBox="0 0 454 454" style="enable-background:new 0 0 454 454;" xml:space="preserve">
<style type="text/css">
	.st0{fill:#8F8F8F;}
</style>
<g>
	<path class="st0" d="M145.7,283H13.9c-6.1,0-10.8-4.7-10.8-10.8v-25.3c0-55.3,45.1-100.4,100.4-100.4h27.8
		c15.5,0,30.7,3.6,45.1,10.8l-9.8,19.5c-11.6-5.8-23.5-8.7-35.8-8.7h-27.5c-43.3,0-78.7,35.4-78.7,78.7v14.4h121L145.7,283
		L145.7,283z"/>
	<path class="st0" d="M117.2,134.9c-36.5,0-66.5-30-66.5-66.5S80.7,2,117.2,2s66.5,30,66.5,66.5S153.7,134.9,117.2,134.9z
		 M117.2,23.7c-24.6,0-44.8,20.2-44.8,44.8s20.2,44.8,44.8,44.8S162,93,162,68.5S141.8,23.7,117.2,23.7z"/>
</g>
<path class="st0" d="M302,152c-82.8,0-150,67.2-150,150s67.2,150,150,150s150-67.2,150-150C451.9,219.2,384.8,152.1,302,152z
	 M302,432c-71.8,0-130-58.2-130-130s58.2-130,130-130s130,58.2,130,130C431.9,373.8,373.8,431.9,302,432z"/>
<g>
	<path class="st0" d="M289.8,406V198h24.5v208H289.8z"/>
	<path class="st0" d="M198,289.8h208v24.5H198V289.8z"/>
</g>
</svg>
