<?xml version="1.0" encoding="utf-8"?>
<!-- Generator: Adobe Illustrator 21.1.0, SVG Export Plug-In . SVG Version: 6.00 Build 0)  -->
<svg version="1.1" id="Capa_1" xmlns="http://www.w3.org/2000/svg" xmlns:xlink="http://www.w3.org/1999/xlink" x="0px" y="0px"
	 viewBox="0 0 512 512" style="enable-background:new 0 0 512 512;" xml:space="preserve">
<style type="text/css">
	.st0{fill:#B59E5C;}
	.st1{fill:#020202;}
</style>
<g>
	<g>
		<g>
			<path d="M467.7,171.5c-17.4-8.7-50.1-8.8-51.5-8.8c-4.1,0-7.5,3.4-7.5,7.5s3.4,7.5,7.5,7.5c8.4,0,32.9,1.3,44.8,7.2
				c1.1,0.5,2.2,0.8,3.3,0.8c2.8,0,5.4-1.5,6.7-4.1C472.9,177.9,471.4,173.3,467.7,171.5z"/>
		</g>
	</g>
	<g>
		<g>
			<path d="M464,255.1l-28.4-8.1c-1.2-0.3-2.1-1.5-2.1-2.8v-9.5c2.3-1.6,4.5-3.4,6.6-5.4c10-9.7,15.5-22.7,15.5-36.6v-13.1l2.7-5.5
				c3-6,4.6-12.8,4.6-19.5v-35.4c0-3.8-3.1-6.9-6.9-6.9H390c-24,0-43.6,19.6-43.6,43.6v0.4c0,5.6,1.3,11.2,3.8,16.2l3.5,7V191
				c0,17.8,8.8,33.7,22,43.3l0,9.9c0,1.5,0,2.2-5.7,3.8l-13.8,4l-40-14.6c0.1-1.9-0.5-3.8-1.9-5.3l-12.8-13.4v-22.6
				c1.4-1.1,2.7-2.3,4-3.5c16.1-15.1,25.4-36.5,25.4-58.6v-18c4.9-10.6,7.3-21.8,7.3-33.4V9.2c0-3.8-3.1-6.9-6.9-6.9H228.6
				c-36.2,0-65.6,29.4-65.6,65.6v14.7c0,11.6,2.5,22.8,7.3,33.4v15.5c0,25.7,11.4,48.8,29.4,64.1v23.1l-12.8,13.4
				c-1.4,1.4-2,3.4-1.9,5.3l-42.3,15.4c-3.1,1.1-5.9,2.6-8.5,4.5l-6.6-3.3c19.8-8.6,26-20.7,26.3-21.3c1-1.9,1-4.2,0-6.1
				c-5-9.9-5.6-28.1-6-42.7c-0.2-4.9-0.3-9.4-0.6-13.5c-2.3-33-27.4-57.8-58.3-57.8s-55.9,24.9-58.3,57.8c-0.3,4.1-0.4,8.7-0.6,13.5
				c-0.5,14.6-1.1,32.7-6,42.6c-1,1.9-1,4.2,0,6.1c0.3,0.6,6.5,12.7,26.3,21.3L32,263.1C22.1,268,16,278,16,289v50.8
				c0,3.8,3.1,6.9,6.9,6.9s6.9-3.1,6.9-6.9V289c0-5.8,3.2-11,8.4-13.6l23-11.5l8,7.6c5.6,5.3,12.7,8,19.9,8c7.2,0,14.3-2.7,19.9-8
				l8-7.6l7.5,3.7c-3.5,5.6-5.5,12.3-5.5,19.2v52.9c0,3.8,3.1,6.9,6.9,6.9c3.8,0,6.9-3.1,6.9-6.9v-52.9c0-9.4,6-17.9,14.8-21.2
				l44.6-16.2l18.6,27.8c2.4,3.6,6.2,5.8,10.4,6.3c0.5,0,0.9,0.1,1.4,0.1c3.8,0,7.3-1.5,10-4.2l11.3-11.3v-5.4
				c0,3.8,3.1,6.9,6.9,6.9c3.8,0,6.9-3.1,6.9-6.9v5.4l11.3,11.3c2.7,2.7,6.3,4.2,10,4.2c0.5,0,0.9,0,1.4-0.1
				c4.3-0.4,8.1-2.7,10.4-6.3l18.6-27.8l44.6,16.2c8.9,3.2,14.8,11.7,14.8,21.2v52.9c0,3.8,3.1,6.9,6.9,6.9s6.9-3.1,6.9-6.9v-52.9
				c0-9.6-3.8-18.5-10.2-25.1l1.7-0.5c1.7-0.5,4-1.2,6.4-2.3l17.5,17.5v63.3c0,3.8,3.1,6.9,6.9,6.9c3.8,0,6.9-3.1,6.9-6.9v-63.3
				L429,259c0.9,0.5,1.9,0.9,2.9,1.2l28.4,8.1c6.5,1.9,11,7.8,11,14.6v56.8c0,3.8,3.1,6.9,6.9,6.9s6.9-3.1,6.9-6.9v-56.8
				C485,270.1,476.4,258.6,464,255.1z M60.1,243c-12.9-4.6-19.3-10.8-22-14.2c1.9-4.9,3.1-10.5,3.9-16.5
				c3.8,9.1,10.1,16.8,18.1,22.4V243z M99.4,261.6c-5.9,5.6-15,5.6-20.9,0l-6.4-6.1c1.1-2,1.7-4.3,1.7-6.7v-7.3
				c4.8,1.5,9.9,2.3,15.2,2.3c5.3,0,10.4-0.8,15.2-2.3l0,7.3c0,2.4,0.6,4.7,1.7,6.7L99.4,261.6z M89,230
				c-20.5,0-37.2-16.7-37.2-37.2c0-3.8-3.1-6.9-6.9-6.9c-0.4,0-0.8,0-1.1,0.1c0-0.6,0-1.2,0.1-1.8c0.2-4.7,0.3-9.2,0.6-13
				c0.9-12.3,5.8-23.7,13.9-32c8.2-8.4,19-13,30.7-13s22.5,4.6,30.7,13c8.1,8.3,13,19.7,13.9,32c0.3,3.8,0.4,8.3,0.6,13
				c0,0.4,0,0.8,0,1.2c-7.5-11.5-19-20-33.9-24.8c-13.8-4.4-25.6-4.2-26.1-4.1c-1.8,0.1-3.5,0.8-4.8,2.1L57,171.5
				c-2.6,2.7-2.6,7.1,0.2,9.7c2.7,2.6,7.1,2.6,9.7-0.2l10.3-10.7c8.9,0.4,37.5,3.8,48.6,28.2C122.9,216.6,107.4,230,89,230z
				 M117.9,243l0-8.2c8-5.5,14.3-13.2,18.1-22.4c0.8,5.9,2,11.5,3.9,16.4C137.2,232.1,130.7,238.4,117.9,243z M184,131.5v-17
				c0-1-0.2-2.1-0.7-3c-4.4-9.2-6.7-18.9-6.7-28.9V67.9c0-28.6,23.3-51.9,51.9-51.9h96v66.6c0,10-2.2,19.7-6.7,28.9
				c-0.4,0.9-0.7,2-0.7,3V134c0,18.6-7.5,35.9-21.1,48.6c-1.7,1.6-3.5,3.1-5.3,4.5c0,0-0.1,0.1-0.1,0.1
				c-12.7,9.7-28.3,14.4-44.6,13.3C211.3,198.2,184,167.9,184,131.5z M222.7,269.8c0,0-0.2,0.2-0.4,0.1c-0.2,0-0.3-0.2-0.3-0.2
				l-21.4-32.1l6.9-7.2l32.4,22.2L222.7,269.8z M250.6,243.3l-37.2-25.4V205c9.6,5.2,20.4,8.5,31.9,9.2c1.8,0.1,3.6,0.2,5.4,0.2
				c13.1,0,25.8-3.1,37.1-9.1v12.5L250.6,243.3z M279.2,269.7c0,0.1-0.1,0.2-0.3,0.2c-0.2,0-0.3-0.1-0.4-0.1l-17.2-17.2l32.4-22.2
				l6.9,7.2L279.2,269.7z M404.7,263.9l-15.6-15.6c0.3-1.2,0.4-2.6,0.4-4.1l0-2.9c4.3,1.4,8.9,2.3,13.6,2.4c0.5,0,1.1,0,1.6,0
				c5.2,0,10.3-0.8,15.1-2.3v2.8c0,1.4,0.2,2.7,0.5,4L404.7,263.9z M430.6,219.5c-7.3,7.1-16.9,10.8-27.1,10.5
				c-19.9-0.6-36.1-18.1-36.1-39v-12.8c0-1.1-0.2-2.1-0.7-3.1l-4.2-8.5c-1.6-3.1-2.4-6.6-2.4-10.1v-0.4c0-16.5,13.4-29.9,29.9-29.9
				h59.2v28.5c0,4.6-1.1,9.2-3.2,13.4l-3.5,6.9c-0.5,1-0.7,2-0.7,3.1v14.7C441.9,203,437.9,212.4,430.6,219.5z"/>
		</g>
	</g>
	<g>
		<g>
			<path d="M488.4,315c-4.1,0-7.5,3.4-7.5,7.5v48.1c0,4.1,3.4,7.5,7.5,7.5s7.5-3.4,7.5-7.5v-48.1C495.9,318.4,492.6,315,488.4,315z"
				/>
		</g>
	</g>
	<g>
		<g>
			<path d="M55.6,325c-4.1,0-7.5,3.4-7.5,7.5v38.2c0,4.1,3.4,7.5,7.5,7.5s7.5-3.4,7.5-7.5v-38.2C63.1,328.3,59.7,325,55.6,325z"/>
		</g>
	</g>
	<g>
		<g>
			<path d="M333.5,92.7c-28.4-28.4-87.7-22.9-111.9-19.3c-7.6,1.1-13.2,7.6-13.2,15.3V106c0,4.1,3.4,7.5,7.5,7.5s7.5-3.4,7.5-7.5
				V88.8c0-0.3,0.2-0.5,0.4-0.5c9.7-1.5,28.9-3.7,48.7-2.4c23.4,1.6,40.3,7.4,50.3,17.4c2.9,2.9,7.7,2.9,10.6,0
				C336.5,100.4,336.5,95.6,333.5,92.7z"/>
		</g>
	</g>
</g>
<path class="st0" d="M256.1,289.5c-60.6,0-109.8,49.1-109.8,109.7S195.4,509,256.1,509c60.6,0,109.8-49.1,109.8-109.7
	C365.7,338.7,316.6,289.6,256.1,289.5z M256.1,489c-49.6,0-89.8-40.2-89.8-89.8s40.2-89.8,89.8-89.8s89.8,40.2,89.8,89.8
	C345.8,448.7,305.6,489,256.1,489z"/>
<path class="st1" d="M316.2,391.3H264v-52.1c0-4.4-3.6-7.9-7.9-7.9s-7.9,3.6-7.9,7.9v52.1h-52.1c-4.4,0-7.9,3.6-7.9,7.9
	c0,4.3,3.6,7.9,7.9,7.9h52.1v52.1c0,4.4,3.6,7.9,7.9,7.9s7.9-3.6,7.9-7.9v-52.1h52.1c4.4,0,7.9-3.6,7.9-7.9
	C324,394.9,320.6,391.3,316.2,391.3z"/>
</svg>
