<?xml version="1.0" encoding="utf-8"?>
<!-- Generator: Adobe Illustrator 21.1.0, SVG Export Plug-In . SVG Version: 6.00 Build 0)  -->
<svg version="1.1" id="Layer_1" xmlns="http://www.w3.org/2000/svg" xmlns:xlink="http://www.w3.org/1999/xlink" x="0px" y="0px"
	 viewBox="0 0 512 512" style="enable-background:new 0 0 512 512;" xml:space="preserve">
<style type="text/css">
	.st0{fill:#003176;}
	.st1{fill:#F68606;}
	.st2{fill:#0C397A;}
</style>
<g id="Receipt">
	<path class="st0" d="M360,459.1c-4.4,0-8,3.6-8,8V480H32V32h240v72c0,4.4,3.6,8,8,8h72v88.9c0,4.4,3.6,8,8,8s8-3.6,8-8V104
		c0-2.1-0.8-4.2-2.3-5.7l-80-80c-1.5-1.5-3.5-2.3-5.7-2.3H24c-4.4,0-8,3.6-8,8v464c0,4.4,3.6,8,8,8h336c4.4,0,8-3.6,8-8v-20.9
		C368,462.7,364.4,459.1,360,459.1z M288,96V43.3L340.7,96H288z"/>
	<path class="st0" d="M312,144h-32c-4.4,0-8,3.6-8,8s3.6,8,8,8h32c4.4,0,8-3.6,8-8S316.4,144,312,144z"/>
	<path class="st0" d="M312,176h-64c-4.4,0-8,3.6-8,8s3.6,8,8,8h64c4.4,0,8-3.6,8-8S316.4,176,312,176z"/>
	<path class="st0" d="M312,208h-64c-4.4,0-8,3.6-8,8s3.6,8,8,8h64c4.4,0,8-3.6,8-8S316.4,208,312,208z"/>
	<path class="st0" d="M248,160h8c4.4,0,8-3.6,8-8s-3.6-8-8-8h-8c-4.4,0-8,3.6-8,8S243.6,160,248,160z"/>
	<path class="st0" d="M292,424h-80c-4.4,0-8,3.6-8,8s3.6,8,8,8h80c4.4,0,8-3.6,8-8S296.4,424,292,424z"/>
	<path class="st0" d="M292,448h-48c-4.4,0-8,3.6-8,8s3.6,8,8,8h48c4.4,0,8-3.6,8-8S296.4,448,292,448z"/>
	<path class="st1" d="M398,224.3c-60.6,0-109.8,49.1-109.8,109.7S337.3,443.8,398,443.8c60.6,0,109.8-49.1,109.8-109.7
		C507.6,273.5,458.5,224.4,398,224.3z M398,423.8c-49.6,0-89.8-40.2-89.8-89.8s40.2-89.8,89.8-89.8s89.8,40.2,89.8,89.8
		C487.7,383.5,447.5,423.8,398,423.8z"/>
	<path class="st0" d="M82,296H66c-4.4,0-8,3.6-8,8s3.6,8,8,8h16c4.4,0,8-3.6,8-8S86.4,296,82,296z"/>
	<path class="st0" d="M254,296H114c-4.4,0-8,3.6-8,8s3.6,8,8,8h140c4.4,0,8-3.6,8-8S258.4,296,254,296z"/>
	<path class="st0" d="M82,328H66c-4.4,0-8,3.6-8,8s3.6,8,8,8h16c4.4,0,8-3.6,8-8S86.4,328,82,328z"/>
	<path class="st0" d="M254,328H114c-4.4,0-8,3.6-8,8s3.6,8,8,8h140c4.4,0,8-3.6,8-8S258.4,328,254,328z"/>
	<path class="st0" d="M82,360H66c-4.4,0-8,3.6-8,8s3.6,8,8,8h16c4.4,0,8-3.6,8-8S86.4,360,82,360z"/>
	<path class="st0" d="M114,376h140c4.4,0,8-3.6,8-8s-3.6-8-8-8H114c-4.4,0-8,3.6-8,8S109.6,376,114,376z"/>
	<path class="st2" d="M458.1,326.1h-52.2V274c0-4.4-3.6-7.9-7.9-7.9s-7.9,3.6-7.9,7.9v52.1H338c-4.4,0-7.9,3.6-7.9,7.9
		s3.6,7.9,7.9,7.9h52.1V394c0,4.4,3.6,7.9,7.9,7.9s7.9-3.6,7.9-7.9v-52.1H458c4.4,0,7.9-3.6,7.9-7.9S462.5,326.1,458.1,326.1z"/>
	<g>
		<g>
			<path class="st1" d="M118.9,53.6c-4.1,0-7.4,3.3-7.4,7.4v13.3c-34,3.7-60.5,32.6-60.5,67.5c0,37.4,30.5,67.9,67.9,67.9
				c34.9,0,63.8-26.5,67.5-60.5h13.3c4.1,0,7.4-3.3,7.4-7.4C207,93.1,167.5,53.6,118.9,53.6z M118.9,194.9
				c-29.3,0-53.2-23.9-53.2-53.2c0-26.8,19.9-49,45.8-52.6v52.6c0,4.1,3.3,7.4,7.4,7.4h52.6C167.9,175,145.7,194.9,118.9,194.9z
				 M126.3,134.4L126.3,134.4V68.7c34.6,3.5,62.2,31.1,65.6,65.6L126.3,134.4L126.3,134.4z"/>
		</g>
	</g>
</g>
</svg>
