<?xml version="1.0" encoding="utf-8"?>
<!-- Generator: Adobe Illustrator 21.1.0, SVG Export Plug-In . SVG Version: 6.00 Build 0)  -->
<svg version="1.1" id="Capa_1" xmlns="http://www.w3.org/2000/svg" xmlns:xlink="http://www.w3.org/1999/xlink" x="0px" y="0px"
	 viewBox="0 0 512 512" style="enable-background:new 0 0 512 512;" xml:space="preserve">
<style type="text/css">
	.st0{fill:#003176;}
	.st1{fill:#F68606;}
	.st2{fill:#0C397A;}
</style>
<g>
	<g>
		<path class="st0" d="M154.6,492 M377.4,510v-48.3c0-28.2-14.4-47.2-14.4-47.2c-13.9-20.7-36.7-35-62.8-37.4c-0.1,0-0.2,0-0.3-0.1
			c9.4-10.5,15.1-24.2,15.1-39.3V256c0-5.5-4.5-10-10-10h-60.7c-26.1,0-47.3,21.2-47.3,47.3v44.3c0,15.1,5.7,28.9,15.1,39.3
			c-0.1,0-0.2,0-0.3,0.1c-26.2,2.4-48.9,16.7-62.8,37.4c0,0-14.4,21.1-14.4,47.3V510H377.4z M357.4,492L357.4,492 M256,376.7
			c-21.5,0-39-17.5-39-39v-13.2h59.8c6.6,0,12.9-1.7,18.3-4.7v17.9C295,359.2,277.5,376.7,256,376.7z M273.4,396.7L256,414.1
			l-17.4-17.4H273.4z M217,293.3L217,293.3c0-15.1,12.3-27.3,27.3-27.3H295v20.1c0,10.1-8.2,18.3-18.3,18.3H217V293.3L217,293.3z
			 M154.6,492v-20h65.1c5.5,0,10-4.5,10-10s-4.5-10-10-10h-64.4c4.3-28.4,27-50.9,55.6-54.7l38,38c2,2,4.5,2.9,7.1,2.9
			s5.1-1,7.1-2.9l38-38c31.8,4.3,56.3,31.5,56.3,64.4l0,30.3H154.6z"/>
	</g>
</g>
<g>
	<g>
		<path class="st1" d="M263.1,454.9c-1.9-1.9-4.4-2.9-7.1-2.9s-5.2,1.1-7.1,2.9s-2.9,4.4-2.9,7.1s1.1,5.2,2.9,7.1
			c1.9,1.9,4.4,2.9,7.1,2.9s5.2-1.1,7.1-2.9c1.9-1.9,2.9-4.4,2.9-7.1S264.9,456.8,263.1,454.9z"/>
	</g>
</g>
<path class="st1" d="M256,2.3c-60.6,0-109.8,49.1-109.8,109.7S195.3,221.8,256,221.8c60.6,0,109.8-49.1,109.8-109.7
	C365.6,51.5,316.5,2.4,256,2.3z M256,201.8c-49.6,0-89.8-40.2-89.8-89.8s40.2-89.8,89.8-89.8s89.8,40.2,89.8,89.8
	C345.7,161.5,305.5,201.8,256,201.8z"/>
<path class="st2" d="M316.1,104.1h-52.2V52c0-4.4-3.6-7.9-7.9-7.9s-7.9,3.6-7.9,7.9v52.1H196c-4.4,0-7.9,3.6-7.9,7.9
	s3.6,7.9,7.9,7.9h52.1V172c0,4.4,3.6,7.9,7.9,7.9s7.9-3.6,7.9-7.9v-52.1H316c4.4,0,7.9-3.6,7.9-7.9S320.5,104.1,316.1,104.1z"/>
<path class="st0" d="M155.3,236c0-42.4-34.4-76.8-76.8-76.8C36.1,159.3,1.9,193.6,1.8,236c0,42.4,34.4,76.8,76.8,76.8
	C121,312.7,155.3,278.4,155.3,236z M78.6,298.8c-34.7,0-62.8-28.1-62.8-62.8s28.1-62.8,62.8-62.8s62.8,28.1,62.8,62.8
	S113.3,298.8,78.6,298.8z"/>
<path class="st1" d="M78.6,229c-3.8,0-7-3.1-7-7c0-3.8,3.1-7,7-7h14c3.8,0,7-3.1,7-7c0-3.8-3.1-7-7-7h-7v-7c0-3.8-3.1-7-7-7
	c-3.8,0-7,3.1-7,7v8.3c-9.7,3.4-15.4,13.2-13.7,23.2c1.7,10.1,10.5,17.3,20.6,17.3c3.8,0,7,3.1,7,7c0,3.8-3.1,7-7,7H64.6
	c-3.8,0-7,3.1-7,7c0,3.8,3.1,7,7,7h7v7c0,3.8,3.1,7,7,7c3.8,0,7-3.1,7-7v-8.2c9.7-3.4,15.4-13.2,13.7-23.2
	C97.4,236.3,88.7,229,78.6,229z"/>
<path class="st1" d="M469.5,301.6c-0.1-0.2-0.1-0.3-0.2-0.5c0-0.1,0-0.1,0-0.2c-0.3-0.7-0.8-1.4-1.4-1.9c-0.2-0.2-0.3-0.3-0.5-0.4
	c-1.3-1.2-3-1.8-4.8-1.9H448c-3.9,0-7,3-7.3,6.8c-0.3,3.9,2.6,7.2,6.3,7.7l-20.7,24.8L410,314.3c-1.5-1.9-3.7-2.9-6.1-2.9
	c-2.4,0.1-4.5,1.3-5.9,3.3l-14.6,21.9c-1.5,2.1-1.7,5-0.5,7.4s3.5,3.9,6.1,4.1c2.7,0.2,5.1-1.1,6.6-3.3l8.9-13.3l15.7,21
	c1.4,1.8,3.4,2.8,5.6,2.9h0.2c2.1,0,4.2-0.9,5.6-2.7l24.9-29.9c1.3,2.1,3.5,3.3,6,3.3c2,0,3.8-0.8,5.1-2.1c1.4-1.4,2.1-3.3,2.1-5.1
	v-14.6c0-0.2-0.1-0.3-0.1-0.3C469.8,303,469.7,302.3,469.5,301.6z"/>
<path class="st0" d="M502.8,326c0-42.4-34.4-76.8-76.8-76.8c-42.4,0.1-76.6,34.4-76.7,76.8c0,42.4,34.4,76.8,76.8,76.8
	C468.4,402.7,502.8,368.4,502.8,326z M426,388.8c-34.7,0-62.8-28.1-62.8-62.8s28.1-62.8,62.8-62.8s62.8,28.1,62.8,62.8
	S460.7,388.8,426,388.8z"/>
</svg>
