<?xml version="1.0" encoding="utf-8"?>
<!-- Generator: Adobe Illustrator 21.1.0, SVG Export Plug-In . SVG Version: 6.00 Build 0)  -->
<svg version="1.1" id="Capa_1" xmlns="http://www.w3.org/2000/svg" xmlns:xlink="http://www.w3.org/1999/xlink" x="0px" y="0px"
	 viewBox="0 0 485 485" style="enable-background:new 0 0 485 485;" xml:space="preserve">
<style type="text/css">
	.st0{fill:#FFFFFF;}
</style>
<g>
	<g>
		<path class="st0" d="M489.9,57.2H222.9c-0.5,0-1.1,0.7-1.1,1.8v42.2c0,0.9,0.4,1.8,1.1,1.8h267.1c0.5,0,1.1-0.7,1.1-1.8V59
			C491,58,490.6,57.2,489.9,57.2z"/>
		<circle class="st0" cx="107.5" cy="365.8" r="56.5"/>
		<path class="st0" d="M223.8,179.1h239.5c1,0,2-0.5,2-1.3v-29.6c0-0.6-0.8-1.3-2-1.3H223.8c-1,0-2,0.5-2,1.3v29.6
			C222,178.7,222.8,179.1,223.8,179.1z"/>
		<path class="st0" d="M489.9,304.7H222.9c-0.5,0-1.1,0.7-1.1,1.8v42.2c0,0.9,0.4,1.8,1.1,1.8h267.1c0.5,0,1.1-0.7,1.1-1.8v-42.2
			C491,305.4,490.6,304.7,489.9,304.7z"/>
		<path class="st0" d="M223.8,426.9h239.5c1,0,2-0.6,2-1.3v-31.2c0-0.7-0.8-1.3-2-1.3H223.8c-1,0-2,0.6-2,1.3v31.2
			C222,426.2,222.8,426.9,223.8,426.9z"/>
		<polygon class="st0" points="72.6,116.6 38.2,81.9 2.2,117.6 36.8,152.4 72.5,188.3 108.4,152.5 190.9,70.7 155.1,34.6 		"/>
	</g>
</g>
</svg>
