<?xml version="1.0" encoding="utf-8"?>
<!-- Generator: Adobe Illustrator 21.1.0, SVG Export Plug-In . SVG Version: 6.00 Build 0)  -->
<svg version="1.1" id="Capa_1" xmlns="http://www.w3.org/2000/svg" xmlns:xlink="http://www.w3.org/1999/xlink" x="0px" y="0px"
	 viewBox="0 0 469.9 469.9" style="enable-background:new 0 0 469.9 469.9;" xml:space="preserve">
<style type="text/css">
	.st0{fill:#FFFFFF;}
</style>
<g>
	<g>
		<path class="st0" d="M447.6,39.5H256.4c-12.3,0-22.2,10-22.2,22.2v98.7c0,12.3,10,22.2,22.2,22.2h16.8v39.2c0,2.7,1.6,5.2,4,6.3
			c0.9,0.4,1.9,0.6,2.9,0.6c1.6,0,3.2-0.6,4.5-1.7l51.4-44.4h111.6c12.3,0,22.2-10,22.2-22.2V61.8C469.9,49.5,459.9,39.5,447.6,39.5
			z M296.7,127.4c-9.7,0-17.6-7.9-17.6-17.6s7.9-17.6,17.6-17.6s17.6,7.9,17.6,17.6C314.3,119.5,306.4,127.4,296.7,127.4z
			 M352,127.4c-9.7,0-17.6-7.9-17.6-17.6s7.9-17.6,17.6-17.6s17.6,7.9,17.6,17.6C369.7,119.5,361.8,127.4,352,127.4z M407.4,127.4
			c-9.7,0-17.6-7.9-17.6-17.6s7.9-17.6,17.6-17.6s17.6,7.9,17.6,17.6S417.1,127.4,407.4,127.4z"/>
		<path class="st0" d="M160.7,139.1c-47,0-73,24.4-72.6,71.3c0.7,64.3,28,103.3,72.6,102.6c0,0,72.5,2.9,72.5-102.6
			C233.2,163.4,208.7,139.1,160.7,139.1z"/>
		<path class="st0" d="M289,361.8l-72.5-28.9l-17-14.3c-4.5-3.8-11.1-3.5-15.3,0.6l-23.6,23.5L137,319.2c-4.2-4.1-10.8-4.4-15.2-0.6
			l-17,14.3l-72.5,28.9C9,371.1,9,453.7,7,461.3h307.3C312.3,453.8,312.3,371.1,289,361.8z"/>
	</g>
</g>
</svg>
