<?xml version="1.0" encoding="utf-8"?>
<!-- Generator: Adobe Illustrator 21.1.0, SVG Export Plug-In . SVG Version: 6.00 Build 0)  -->
<svg version="1.1" id="Layer_1" xmlns="http://www.w3.org/2000/svg" xmlns:xlink="http://www.w3.org/1999/xlink" x="0px" y="0px"
	 viewBox="0 0 512 512" style="enable-background:new 0 0 512 512;" xml:space="preserve">
<style type="text/css">
	.st0{fill:#003176;}
	.st1{fill:#F68606;}
</style>
<path class="st0" d="M313.8,138.5c-1.5,3.9,0.4,8.2,4.3,9.7c10.5,4.1,19.4,11.1,25.6,20.6c16.5,24.8,9.6,58.5-15.2,75
	c-24.8,16.5-58.5,9.6-75-15.2s-9.6-58.5,15.2-75c6.3-4.1,13.2-7,20.6-8.2c4.1-0.7,6.8-4.6,6.2-8.6c-0.7-4.1-4.6-6.8-8.6-6.2
	c-9.5,1.6-18.3,5.2-26.4,10.5c-31.8,21.1-40.5,64-19.4,95.8s64,40.5,95.8,19.4s40.5-64,19.4-95.8c-8-12-19.3-21.2-32.8-26.3
	C319.6,132.7,315.3,134.6,313.8,138.5z"/>
<path class="st1" d="M244.3,116.6c-45.3,30-57.7,91.3-27.7,136.5s91.3,57.7,136.5,27.7c45.3-30,57.7-91.3,27.7-136.5
	C350.8,99,289.5,86.6,244.3,116.6z M344.8,268.3c-38.3,25.4-90.3,15-115.7-23.5s-15-90.3,23.5-115.7c38.3-25.4,90.3-15,115.7,23.5
	C393.7,190.9,383.2,242.8,344.8,268.3z"/>
<path class="st0" d="M416.1,315.9l-4-16.6c9-10.2,16.6-21.5,22.7-33.6l39.6,0.2c3.6,0,6.6-2.5,7.4-6l9.4-46.4c0.7-3.5-1.2-7-4.5-8.4
	l-36.5-15.3c-0.8-13.6-3.3-26.9-7.8-39.8l28.1-27.9c2.5-2.5,2.9-6.5,0.9-9.5l-26.2-39.5c-2-3-5.8-4.2-9.1-2.9l-36.6,15
	c-10.2-9-21.5-16.6-33.6-22.7L366,23c0-3.6-2.5-6.6-6-7.4l-46.4-9.4c-3.5-0.7-7,1.2-8.4,4.5l-15.3,36.5C276.3,48,263,50.5,250.1,55
	l-27.9-28c-2.5-2.5-6.5-2.9-9.5-0.9l-39.5,26.2c-3,2-4.2,5.8-2.9,9.1l15,36.6c-9,10.2-16.6,21.5-22.7,33.6l-39.6-0.2
	c-3.6,0-6.6,2.5-7.4,6l-9.4,46.4c-0.7,3.5,1.2,7,4.5,8.4l36.5,15.3c0.6,9,0.8,5.9,3,14.6l15.5,0.2c-1.6-7.6-3.4-12.3-3.6-20.1
	c0-3-1.9-5.6-4.6-6.8l-35.2-14.7l7-34.4l38.1,0.2c3,0,5.6-1.7,6.8-4.4c6.3-13.9,14.8-26.5,25.3-37.5c2-2.2,2.6-5.2,1.5-8l-14.5-35.3
	L215.8,42l26.8,27c2.1,2.1,5.2,2.8,8,1.7c14.2-5.3,29.2-8.3,44.4-8.7c3,0,5.6-1.9,6.7-4.6l14.7-35.2l34.4,7l-0.2,38.1
	c0,3,1.7,5.6,4.4,6.9c13.9,6.3,26.5,14.8,37.5,25.3c2.2,2,5.2,2.6,8,1.5l35.3-14.5l19.5,29.3l-27.1,26.8c-2.1,2.1-2.8,5.2-1.7,8
	c5.3,14.2,8.3,29.2,8.7,44.4c0,3,1.9,5.6,4.6,6.7l35.2,14.7l-7,34.4l-38.1-0.2c-3,0-5.6,1.7-6.9,4.4c-6.3,13.9-14.8,26.5-25.3,37.5
	c-2,2.2-2.6,5.2-1.5,8l3.5,15.3L416.1,315.9z"/>
<g>
	<g>
		<g>
			<path class="st0" d="M248.5,506v-48.3c0-28.2-14.4-47.2-14.4-47.2c-13.9-20.7-36.7-35-62.8-37.4c-0.1,0-0.2,0-0.3-0.1
				c9.4-10.5,15.1-24.2,15.1-39.3V252c0-5.5-4.5-10-10-10h-60.7c-26.1,0-47.3,21.2-47.3,47.3v44.3c0,15.1,5.7,28.9,15.1,39.3
				c-0.1,0-0.2,0-0.3,0.1c-26.2,2.4-48.9,16.7-62.8,37.4c0,0-14.4,21.1-14.4,47.3V506H248.5z M228.5,488L228.5,488 M127.1,372.7
				c-21.5,0-39-17.5-39-39v-13.2h59.8c6.6,0,12.9-1.7,18.3-4.7v17.9C166.1,355.2,148.6,372.7,127.1,372.7z M144.5,392.7l-17.4,17.4
				l-17.4-17.4H144.5z M88.1,289.3L88.1,289.3c0-15.1,12.3-27.3,27.3-27.3h50.7v20.1c0,10.1-8.2,18.3-18.3,18.3H88.1V289.3
				L88.1,289.3z M25.7,488v-20h65.1c5.5,0,10-4.5,10-10s-4.5-10-10-10H26.4c4.3-28.4,27-50.9,55.6-54.7l38,38c2,2,4.5,2.9,7.1,2.9
				s5.1-1,7.1-2.9l38-38c31.8,4.3,56.3,31.5,56.3,64.4V488L25.7,488L25.7,488z"/>
		</g>
	</g>
	<g>
		<g>
			<path class="st1" d="M134.2,450.9c-1.9-1.9-4.4-2.9-7.1-2.9s-5.2,1.1-7.1,2.9s-2.9,4.4-2.9,7.1s1.1,5.2,2.9,7.1
				c1.9,1.9,4.4,2.9,7.1,2.9c2.7,0,5.2-1.1,7.1-2.9c1.9-1.9,2.9-4.4,2.9-7.1S136,452.8,134.2,450.9z"/>
		</g>
	</g>
</g>
<g>
	<g>
		<path class="st0" d="M493.5,358.9H286.2c-6,0-10.9,4.9-10.9,10.9s4.9,10.9,10.9,10.9h207.3c6,0,10.9-4.9,10.9-10.9
			S499.5,358.9,493.5,358.9z"/>
	</g>
</g>
<g>
	<g>
		<path class="st0" d="M493.5,465.4H366.2c-6,0-10.9,4.9-10.9,10.9s4.9,10.9,10.9,10.9h127.3c6,0,10.9-4.9,10.9-10.9
			S499.5,465.4,493.5,465.4z"/>
	</g>
</g>
<g>
	<g>
		<path class="st1" d="M435.6,411.2H286.2c-6,0-10.9,4.9-10.9,10.9c0,6,4.9,10.9,10.9,10.9h149.5c6,0,10.9-4.9,10.9-10.9
			C446.5,416.1,441.6,411.2,435.6,411.2z"/>
	</g>
</g>
<g>
	<g>
		<path class="st1" d="M320.3,468.5c-2.1-2.1-4.8-3.1-7.7-3.1c-2.8,0-5.6,1.2-7.7,3.1c-2.1,2.1-3.1,4.8-3.1,7.7s1.2,5.6,3.1,7.7
			c2.1,2.1,4.8,3.1,7.7,3.1c2.8,0,5.6-1.2,7.7-3.1c2.1-2.1,3.1-4.8,3.1-7.7S322.3,470.6,320.3,468.5z"/>
	</g>
</g>
</svg>
