<?xml version="1.0" encoding="utf-8"?>
<!-- Generator: Adobe Illustrator 21.1.0, SVG Export Plug-In . SVG Version: 6.00 Build 0)  -->
<svg version="1.1" id="Layer_1" xmlns="http://www.w3.org/2000/svg" xmlns:xlink="http://www.w3.org/1999/xlink" x="0px" y="0px"
	 viewBox="0 0 480 480" style="enable-background:new 0 0 480 480;" xml:space="preserve">
<style type="text/css">
	.st0{fill:#8F8F8F;}
</style>
<path class="st0" d="M323,131c-82.8,0-150,67.2-150,150s67.2,150,150,150s150-67.2,150-150C472.9,198.2,405.8,131.1,323,131z
	 M323,411c-71.8,0-130-58.2-130-130s58.2-130,130-130s130,58.2,130,130C452.9,352.8,394.8,410.9,323,411z"/>
<path class="st0" d="M352,464H64c-13.3,0-24-10.7-24-24V40c0-13.3,10.7-24,24-24h224v72c0,3.4,2.2,6.5,5.5,7.6s6.9,0,8.9-2.8
	L320,69.3l17.6,23.5c1.5,2,3.9,3.2,6.4,3.2c0.9,0,1.7-0.1,2.5-0.4c3.3-1.1,5.5-4.1,5.5-7.6V16c13.3,0,24,10.7,24,24v74h16V40
	c0-22.1-17.9-40-40-40H64C41.9,0,24,17.9,24,40v400c0,22.1,17.9,40,40,40h288c22.1,0,40-17.9,40-40h-16C376,453.3,365.3,464,352,464
	z M336,64l-9.6-12.8c-1.6-1.9-3.9-3-6.4-3s-4.8,1.1-6.4,3L304,64V16h32V64z"/>
<path class="st0" d="M72,48h32v16H72V48z"/>
<path class="st0" d="M120,48h80v16h-80V48z"/>
<path class="st0" d="M72,80h128v16H72V80z"/>
<path class="st0" d="M72,144h85.6v16H72V144z"/>
<path class="st0" d="M164.2,144H184v16h-19.8V144z"/>
<path class="st0" d="M72,192h93.1v16H72V192z"/>
<path class="st0" d="M72,240h69.8v16H72V240z"/>
<path class="st0" d="M72,288h81.5v16H72V288z"/>
<path class="st0" d="M72,368h80v16H72V368z"/>
<path class="st0" d="M72,400h80v16H72V400z"/>
<g>
	<path class="st0" d="M310.7,385V177h24.5v208H310.7z"/>
	<path class="st0" d="M219,268.7h208v24.5H219V268.7z"/>
</g>
</svg>
