<?xml version="1.0" encoding="utf-8"?>
<!-- Generator: Adobe Illustrator 21.1.0, SVG Export Plug-In . SVG Version: 6.00 Build 0)  -->
<svg version="1.1" id="Capa_1" xmlns="http://www.w3.org/2000/svg" xmlns:xlink="http://www.w3.org/1999/xlink" x="0px" y="0px"
	 viewBox="0 0 512 512" style="enable-background:new 0 0 512 512;" xml:space="preserve">
<style type="text/css">
	.st0{fill:#8F8F8F;}
</style>
<g>
	<path class="st0" d="M287,205h139.5c6.1,0,12-2.5,16.1-7s6.2-10.5,5.7-16.6c-1.9-22.9-12.3-44.2-29.2-59.8
		c-5.1-4.7-10.6-8.8-16.6-12.2C414,97.8,421,81.9,421,64.3C421,28.9,392.3,0,356.9,0s-64.1,28.9-64.1,64.3c0,17.5,7,33.5,18.5,45.1
		c-5.9,3.4-11.4,7.4-16.6,12.2c-16.9,15.6-27.3,36.8-29.2,59.8c-0.5,6.1,1.6,12.1,5.7,16.6C275.1,202.4,280.9,205,287,205z
		 M324.1,64.3c0-18.2,14.7-32.8,32.6-32.8c18,0,32.6,14.7,32.6,32.8s-14.7,32.8-32.6,32.8C338.8,97.2,324.1,82.5,324.1,64.3z
		 M315.9,144.7c11.1-10.4,25.7-16.1,40.9-16.1c15.2,0,29.7,5.7,40.9,16.1c8.5,7.9,14.5,17.8,17.4,28.9H298.7
		C301.4,162.5,307.4,152.6,315.9,144.7z"/>
	<path class="st0" d="M26.8,205h139.5c6.1,0,12-2.5,16.1-7s6.2-10.5,5.7-16.6c-1.9-22.9-12.3-44.2-29.2-59.8
		c-5.1-4.7-10.6-8.8-16.6-12.2c11.4-11.6,18.5-27.5,18.5-45.1C160.8,28.9,132,0,96.7,0S32.4,28.9,32.4,64.3c0,17.5,7,33.5,18.5,45.1
		c-5.9,3.4-11.4,7.4-16.6,12.2C17.4,137.2,7,158.4,5.1,181.4c-0.5,6.1,1.6,12.1,5.7,16.6C14.8,202.4,20.7,205,26.8,205z M63.8,64.3
		c0-18.2,14.7-32.8,32.6-32.8S129,46.2,129,64.3s-14.7,32.8-32.6,32.8S63.8,82.5,63.8,64.3z M55.7,144.7
		c11.1-10.4,25.7-16.1,40.9-16.1s29.7,5.7,40.9,16.1c8.5,7.9,14.5,17.8,17.4,28.9H38.4C41.2,162.5,47.2,152.6,55.7,144.7z"/>
	<path class="st0" d="M158.7,393.6c-5.1-4.7-10.6-8.8-16.6-12.2c11.4-11.6,18.5-27.5,18.5-45.1c0-35.5-28.7-64.3-64.1-64.3
		s-64.1,28.9-64.1,64.3c0,17.5,7,33.5,18.5,45.1c-5.9,3.4-11.4,7.4-16.6,12.2C17.4,409.2,7,430.4,5.1,453.4
		c-0.5,6.1,1.6,12.1,5.7,16.6s10,7,16.1,7h139.5c6.1,0,12-2.5,16.1-7s6.2-10.5,5.7-16.6C186,430.4,175.6,409.2,158.7,393.6z
		 M63.7,336.3c0-18.2,14.7-32.8,32.6-32.8c18,0,32.6,14.7,32.6,32.8c0,18.2-14.7,32.8-32.6,32.8S63.7,354.4,63.7,336.3z M38.1,445.4
		c2.9-11,8.9-21,17.4-28.9c11.1-10.4,25.7-16.1,40.9-16.1s29.7,5.7,40.9,16.1c8.5,7.9,14.5,17.8,17.4,28.9H38.1z"/>
	<path class="st0" d="M359,213c-82.8,0-150,67.2-150,150s67.2,150,150,150s150-67.2,150-150C508.9,280.2,441.8,213.1,359,213z
		 M359,493c-71.8,0-130-58.2-130-130s58.2-130,130-130s130,58.2,130,130C488.9,434.8,430.8,492.9,359,493z"/>
	<g>
		<path class="st0" d="M346.8,467V259h24.5v208H346.8z"/>
		<path class="st0" d="M255,350.8h208v24.5H255V350.8z"/>
	</g>
</g>
</svg>
