<?xml version="1.0" encoding="utf-8"?>
<!-- Generator: Adobe Illustrator 21.1.0, SVG Export Plug-In . SVG Version: 6.00 Build 0)  -->
<svg version="1.1" id="Layer_1" xmlns="http://www.w3.org/2000/svg" xmlns:xlink="http://www.w3.org/1999/xlink" x="0px" y="0px"
	 viewBox="0 0 512 512" style="enable-background:new 0 0 512 512;" xml:space="preserve">
<style type="text/css">
	.st0{fill:#B59E5C;}
</style>
<g>
	<g>
		<path class="st0" d="M240.5,59.9H102.1c-4.4,0-8,3.6-8,8s3.6,8,8,8h138.4c4.4,0,8-3.6,8-8C248.5,63.4,244.9,59.9,240.5,59.9z"/>
	</g>
</g>
<g>
	<g>
		<path d="M110.7,128.3h-8.6c-4.4,0-8,3.6-8,8s3.6,8,8,8h8.6c4.4,0,8-3.6,8-8S115.2,128.3,110.7,128.3z"/>
	</g>
</g>
<g>
	<g>
		<path d="M341.5,188.1H102.1c-4.4,0-8,3.6-8,8s3.6,8,8,8h239.4c4.4,0,8-3.6,8-8S345.9,188.1,341.5,188.1z"/>
	</g>
</g>
<g>
	<g>
		<path d="M179,258.4h-25.7c-4.4,0-8,3.6-8,8s3.6,8,8,8H179c4.4,0,8-3.6,8-8S183.5,258.4,179,258.4z"/>
	</g>
</g>
<g>
	<g>
		<path d="M119.2,258.4h-17.1c-4.4,0-8,3.6-8,8s3.6,8,8,8h17.1c4.4,0,8-3.6,8-8S123.6,258.4,119.2,258.4z"/>
	</g>
</g>
<g>
	<g>
		<path d="M179,292.6h-25.7c-4.4,0-8,3.6-8,8s3.6,8,8,8H179c4.4,0,8-3.6,8-8C187.1,296.2,183.5,292.6,179,292.6z"/>
	</g>
</g>
<g>
	<g>
		<path d="M119.2,292.6h-17.1c-4.4,0-8,3.6-8,8s3.6,8,8,8h17.1c4.4,0,8-3.6,8-8S123.6,292.6,119.2,292.6z"/>
	</g>
</g>
<g>
	<g>
		<path d="M179,326.8h-25.7c-4.4,0-8,3.6-8,8s3.6,8,8,8H179c4.4,0,8-3.6,8-8S183.5,326.8,179,326.8z"/>
	</g>
</g>
<g>
	<g>
		<path d="M119.2,326.8h-17.1c-4.4,0-8,3.6-8,8s3.6,8,8,8h17.1c4.4,0,8-3.6,8-8S123.6,326.8,119.2,326.8z"/>
	</g>
</g>
<g>
	<g>
		<path d="M179,361h-25.7c-4.4,0-8,3.6-8,8s3.6,8,8,8H179c4.4,0,8-3.6,8-8S183.5,361,179,361z"/>
	</g>
</g>
<g>
	<g>
		<path d="M119.2,361h-17.1c-4.4,0-8,3.6-8,8s3.6,8,8,8h17.1c4.4,0,8-3.6,8-8S123.6,361,119.2,361z"/>
	</g>
</g>
<g>
	<g>
		<path d="M179,395.3h-25.7c-4.4,0-8,3.6-8,8s3.6,8,8,8H179c4.4,0,8-3.6,8-8S183.5,395.3,179,395.3z"/>
	</g>
</g>
<g>
	<g>
		<path d="M119.2,395.3h-17.1c-4.4,0-8,3.6-8,8s3.6,8,8,8h17.1c4.4,0,8-3.6,8-8S123.6,395.3,119.2,395.3z"/>
	</g>
</g>
<g>
	<g>
		<path d="M208.6,128.3H200c-4.4,0-8,3.6-8,8s3.6,8,8,8h8.6c4.4,0,8-3.6,8-8S213,128.3,208.6,128.3z"/>
	</g>
</g>
<g>
	<g>
		<path d="M257.6,128.3H249c-4.4,0-8,3.6-8,8s3.6,8,8,8h8.6c4.4,0,8-3.6,8-8S262,128.3,257.6,128.3z"/>
	</g>
</g>
<g>
	<g>
		<path d="M159.7,128.3h-8.6c-4.4,0-8,3.6-8,8s3.6,8,8,8h8.6c4.4,0,8-3.6,8-8S164.1,128.3,159.7,128.3z"/>
	</g>
</g>
<g>
	<g>
		<path class="st0" d="M257.6,94.1H102.1c-4.4,0-8,3.6-8,8s3.6,8,8,8h155.5c4.4,0,8-3.6,8-8S262,94.1,257.6,94.1z"/>
	</g>
</g>
<g>
	<g>
		<path d="M427,222.3h-34.7V93.5c0-2.1-0.8-4.2-2.3-5.7L304.4,2.3c-1.5-1.5-3.5-2.3-5.7-2.3H76.4C62.6,0,51.3,11.3,51.3,25.1v410.5
			c0,13.9,11.3,25.1,25.1,25.1h128.8v17.6c0,18.6,15.1,33.7,33.7,33.7H427c18.6,0,33.7-15.1,33.7-33.7V256
			C460.7,237.4,445.6,222.3,427,222.3z M306.8,27.4l58.1,58.1h-40.5c-9.7,0-17.6-7.9-17.6-17.6V27.4z M205.2,256v188.7H76.4
			c-5,0-9.1-4.1-9.1-9.1V25.1c0-5,4.1-9.1,9.1-9.1h214.3v51.8c0,18.6,15.1,33.7,33.7,33.7h51.8v120.8H238.9
			C220.3,222.3,205.2,237.4,205.2,256z M444.7,478.3c0,9.7-7.9,17.6-17.6,17.6H238.9c-9.7,0-17.6-7.9-17.6-17.6V256
			c0-9.7,7.9-17.6,17.6-17.6H427c9.7,0,17.6,7.9,17.6,17.6L444.7,478.3L444.7,478.3z"/>
	</g>
</g>
<g>
	<g>
		<path class="st0" d="M409.9,256.5H256c-9.1,0-16.6,7.4-16.6,16.6v34.2c0,9.1,7.4,16.6,16.6,16.6h153.9c9.1,0,16.6-7.4,16.6-16.6
			v-34.2C426.5,264,419.1,256.5,409.9,256.5z M410.5,307.3c0,0.3-0.2,0.5-0.5,0.5H256c-0.3,0-0.5-0.2-0.5-0.5v-34.2
			c0-0.3,0.2-0.5,0.5-0.5h153.9c0.3,0,0.5,0.2,0.5,0.5L410.5,307.3L410.5,307.3z"/>
	</g>
</g>
<g>
	<g>
		<path d="M273.1,350.6H256c-9.1,0-16.6,7.4-16.6,16.6v17.1c0,9.1,7.4,16.6,16.6,16.6h17.1c9.1,0,16.6-7.4,16.6-16.6v-17.1
			C289.7,358,282.2,350.6,273.1,350.6z M273.6,384.3c0,0.3-0.2,0.5-0.5,0.5H256c-0.3,0-0.5-0.2-0.5-0.5v-17.1c0-0.3,0.2-0.5,0.5-0.5
			h17.1c0.3,0,0.5,0.2,0.5,0.5V384.3L273.6,384.3z"/>
	</g>
</g>
<g>
	<g>
		<path d="M409.9,350.6h-17.1c-9.1,0-16.6,7.4-16.6,16.6v17.1c0,9.1,7.4,16.6,16.6,16.6h17.1c9.1,0,16.6-7.4,16.6-16.6v-17.1
			C426.5,358,419.1,350.6,409.9,350.6z M410.5,384.3c0,0.3-0.2,0.5-0.5,0.5h-17.1c-0.3,0-0.5-0.2-0.5-0.5v-17.1
			c0-0.3,0.2-0.5,0.5-0.5H410c0.3,0,0.5,0.2,0.5,0.5V384.3z"/>
	</g>
</g>
<g>
	<g>
		<path d="M341.5,350.6h-17.1c-9.1,0-16.6,7.4-16.6,16.6v17.1c0,9.1,7.4,16.6,16.6,16.6h17.1c9.1,0,16.6-7.4,16.6-16.6v-17.1
			C358.1,358,350.6,350.6,341.5,350.6z M342,384.3c0,0.3-0.2,0.5-0.5,0.5h-17.1c-0.3,0-0.5-0.2-0.5-0.5v-17.1c0-0.3,0.2-0.5,0.5-0.5
			h17.1c0.3,0,0.5,0.2,0.5,0.5V384.3z"/>
	</g>
</g>
<g>
	<g>
		<path d="M273.1,419H256c-9.1,0-16.6,7.4-16.6,16.6v17.1c0,9.1,7.4,16.6,16.6,16.6h17.1c9.1,0,16.6-7.4,16.6-16.6v-17.1
			C289.7,426.4,282.2,419,273.1,419z M273.6,452.7c0,0.3-0.2,0.5-0.5,0.5H256c-0.3,0-0.5-0.2-0.5-0.5v-17.1c0-0.3,0.2-0.5,0.5-0.5
			h17.1c0.3,0,0.5,0.2,0.5,0.5V452.7L273.6,452.7z"/>
	</g>
</g>
<g>
	<g>
		<path d="M409.9,419h-17.1c-9.1,0-16.6,7.4-16.6,16.6v17.1c0,9.1,7.4,16.6,16.6,16.6h17.1c9.1,0,16.6-7.4,16.6-16.6v-17.1
			C426.5,426.4,419.1,419,409.9,419z M410.5,452.7c0,0.3-0.2,0.5-0.5,0.5h-17.1c-0.3,0-0.5-0.2-0.5-0.5v-17.1c0-0.3,0.2-0.5,0.5-0.5
			H410c0.3,0,0.5,0.2,0.5,0.5V452.7z"/>
	</g>
</g>
<g>
	<g>
		<path d="M341.5,419h-17.1c-9.1,0-16.6,7.4-16.6,16.6v17.1c0,9.1,7.4,16.6,16.6,16.6h17.1c9.1,0,16.6-7.4,16.6-16.6v-17.1
			C358.1,426.4,350.6,419,341.5,419z M342,452.7c0,0.3-0.2,0.5-0.5,0.5h-17.1c-0.3,0-0.5-0.2-0.5-0.5v-17.1c0-0.3,0.2-0.5,0.5-0.5
			h17.1c0.3,0,0.5,0.2,0.5,0.5V452.7z"/>
	</g>
</g>
</svg>
