<?xml version="1.0" encoding="utf-8"?>
<!-- Generator: Adobe Illustrator 16.0.0, SVG Export Plug-In . SVG Version: 6.00 Build 0)  -->
<!DOCTYPE svg PUBLIC "-//W3C//DTD SVG 1.1//EN" "http://www.w3.org/Graphics/SVG/1.1/DTD/svg11.dtd">
<svg version="1.1" id="Layer_1" xmlns="http://www.w3.org/2000/svg" xmlns:xlink="http://www.w3.org/1999/xlink" x="0px" y="0px"
	 width="229px" height="58px" viewBox="0 0 229 58" enable-background="new 0 0 229 58" xml:space="preserve">
<g>
	<path fill-rule="evenodd" clip-rule="evenodd" fill="#24286F" d="M65.003,2.305h-0.002h-0.433v0.006
		c-9.593,0.232-17.367,9.104-17.367,18.748v23.788h12.86V20.391c0-6.396,5.675-6.702,10.106-6.708V2.305h-5.054h-0.008h-0.009
		h-0.009H65.08h-0.009h-0.008h-0.009h-0.01h-0.008h-0.009H65.02h-0.008H65.003z"/>
	<rect x="73.429" y="2.451" fill-rule="evenodd" clip-rule="evenodd" fill="#24286F" width="10.706" height="42.396"/>
	<path fill-rule="evenodd" clip-rule="evenodd" fill="#24286F" d="M22.596,12.316c5.927,0,10.731,4.805,10.731,10.731
		s-4.805,10.731-10.731,10.731c-5.928,0-10.732-4.805-10.732-10.731S16.668,12.316,22.596,12.316 M22.596,1.249
		c12.039,0,21.799,9.76,21.799,21.799s-9.76,21.799-21.799,21.799c-12.04,0-21.799-9.76-21.799-21.799S10.556,1.249,22.596,1.249z"
		/>
	<path fill-rule="evenodd" clip-rule="evenodd" fill="#2E3192" d="M112.107,3.981c-7.438-0.135-15.357,1.412-19.979,7.777
		c-5.925,8.166-5.202,20.719,2.951,27.158c4.701,3.714,11.133,4.947,17.027,5.216v-7.756c-3.648-0.235-7.596-1.004-10.631-3.064
		c-5.723-3.885-6.576-11.617-2.166-16.842c3.123-3.699,8.154-4.708,12.797-4.776V3.981z M112.957,3.153
		c-9.863-0.34-17.203,2.166-21.516,8.106c-6.199,8.542-5.417,21.589,3.111,28.324c4.336,3.426,10.518,5.193,18.404,5.432v-9.444
		c-4.678-0.208-8.373-1.175-11.004-2.963c-5.461-3.707-5.961-10.888-1.992-15.59c2.646-3.134,7.074-4.529,12.996-4.477V3.153z"/>
	<path fill-rule="evenodd" clip-rule="evenodd" fill="#2E3192" d="M118.006,4.003v40.104h8.449V28.789h10.404v15.318h8.447V4.003
		h-8.447v15.44h-10.404V4.003H118.006z M117.154,3.153h10.15v15.439h8.703V3.153h10.15v41.805h-10.15V29.64h-8.703v15.318h-10.15
		V3.153z"/>
	<path fill-rule="evenodd" clip-rule="evenodd" fill="#2E3192" d="M152.545,4.003v40.104h23.324v-7.432h-15.391v-8.917h15.391V20.77
		h-15.391v-8.918h15.391V4.003H152.545z M151.693,3.153h25.027v9.549h-15.393v7.217h15.393v8.689h-15.393v7.218h15.393v9.132
		h-25.027V3.153z"/>
	<path fill-rule="evenodd" clip-rule="evenodd" fill="#2E3192" d="M182.17,4.003v40.25h9.631V21.306l11.15,22.338h3.619
		l11.152-22.338v22.947h9.631V4.003h-9.938l-12.012,25.936h-1.285L192.107,4.003H182.17z M181.32,3.153h11.332l12.01,25.935h0.199
		l12.01-25.935h11.332v41.949h-11.332V24.913l-9.773,19.581h-2.336h-2.336l-9.773-19.581v20.189H181.32V3.153z"/>
	<g>
		<path d="M145.396,52.925c0,0.352-0.066,0.659-0.197,0.925c-0.131,0.265-0.307,0.486-0.531,0.663
			c-0.225,0.178-0.486,0.311-0.785,0.4s-0.619,0.134-0.961,0.134c-0.23,0-0.443-0.019-0.643-0.057
			c-0.197-0.038-0.373-0.083-0.523-0.137c-0.152-0.054-0.277-0.109-0.379-0.168s-0.176-0.11-0.221-0.154
			c-0.045-0.045-0.076-0.109-0.096-0.194c-0.018-0.084-0.027-0.205-0.027-0.363c0-0.107,0.004-0.196,0.01-0.269
			c0.008-0.072,0.018-0.131,0.033-0.176s0.037-0.077,0.063-0.096s0.057-0.028,0.09-0.028c0.049,0,0.117,0.028,0.205,0.085
			s0.199,0.12,0.338,0.188c0.137,0.069,0.303,0.132,0.492,0.188c0.191,0.057,0.412,0.085,0.664,0.085
			c0.166,0,0.313-0.02,0.443-0.059c0.131-0.04,0.242-0.096,0.334-0.168s0.16-0.162,0.209-0.269s0.072-0.226,0.072-0.356
			c0-0.151-0.041-0.281-0.123-0.39c-0.084-0.108-0.191-0.205-0.324-0.289c-0.133-0.085-0.283-0.164-0.451-0.238
			c-0.168-0.073-0.342-0.152-0.521-0.234c-0.18-0.083-0.354-0.177-0.521-0.281c-0.168-0.105-0.32-0.23-0.451-0.377
			c-0.133-0.146-0.24-0.319-0.324-0.52c-0.082-0.199-0.123-0.438-0.123-0.718c0-0.319,0.059-0.602,0.178-0.844
			c0.119-0.243,0.279-0.444,0.48-0.604s0.439-0.279,0.713-0.358s0.563-0.119,0.869-0.119c0.158,0,0.316,0.013,0.477,0.036
			c0.158,0.024,0.305,0.057,0.443,0.099c0.137,0.041,0.26,0.087,0.367,0.139c0.105,0.052,0.176,0.095,0.211,0.13
			c0.035,0.034,0.059,0.063,0.07,0.087c0.012,0.024,0.021,0.057,0.031,0.096c0.008,0.04,0.014,0.09,0.018,0.15
			c0.004,0.06,0.004,0.135,0.004,0.225c0,0.1-0.002,0.184-0.006,0.253c-0.006,0.068-0.016,0.125-0.027,0.17
			s-0.029,0.077-0.051,0.099c-0.023,0.021-0.053,0.03-0.09,0.03c-0.039,0-0.1-0.023-0.182-0.072
			c-0.082-0.048-0.184-0.101-0.305-0.157s-0.26-0.108-0.418-0.155c-0.158-0.046-0.332-0.069-0.521-0.069
			c-0.148,0-0.277,0.019-0.387,0.055c-0.111,0.036-0.203,0.086-0.277,0.149s-0.129,0.141-0.164,0.229
			c-0.037,0.09-0.055,0.185-0.055,0.284c0,0.148,0.041,0.276,0.121,0.385s0.189,0.205,0.326,0.289
			c0.135,0.084,0.289,0.163,0.461,0.237s0.348,0.152,0.527,0.235c0.178,0.082,0.354,0.177,0.525,0.281
			c0.174,0.105,0.326,0.23,0.461,0.377s0.242,0.318,0.324,0.517C145.355,52.423,145.396,52.656,145.396,52.925z"/>
		<path d="M150.395,54.396c0,0.1-0.004,0.184-0.014,0.251c-0.008,0.066-0.021,0.121-0.039,0.162s-0.037,0.071-0.064,0.091
			c-0.025,0.019-0.053,0.028-0.084,0.028h-3.357c-0.113,0-0.209-0.034-0.285-0.101c-0.078-0.067-0.117-0.177-0.117-0.328v-5.824
			c0-0.151,0.039-0.261,0.117-0.328c0.076-0.067,0.172-0.101,0.285-0.101h3.336c0.031,0,0.059,0.009,0.082,0.025
			c0.025,0.018,0.045,0.048,0.063,0.091s0.031,0.098,0.039,0.165s0.014,0.152,0.014,0.256c0,0.096-0.006,0.178-0.014,0.245
			s-0.021,0.121-0.039,0.162c-0.018,0.042-0.037,0.072-0.063,0.091c-0.023,0.019-0.051,0.028-0.082,0.028h-2.385v1.632h2.018
			c0.031,0,0.061,0.01,0.086,0.028s0.047,0.048,0.064,0.088c0.018,0.039,0.029,0.093,0.039,0.16
			c0.008,0.066,0.012,0.148,0.012,0.245c0,0.1-0.004,0.183-0.012,0.248c-0.01,0.065-0.021,0.117-0.039,0.157
			c-0.018,0.039-0.039,0.068-0.064,0.085c-0.025,0.018-0.055,0.026-0.086,0.026h-2.018v1.885h2.406c0.031,0,0.059,0.009,0.084,0.028
			c0.027,0.019,0.047,0.049,0.064,0.09s0.031,0.096,0.039,0.163C150.391,54.213,150.395,54.297,150.395,54.396z"/>
		<path d="M156.551,54.753c0,0.038-0.008,0.069-0.021,0.096c-0.014,0.025-0.047,0.047-0.098,0.064
			c-0.053,0.017-0.129,0.029-0.229,0.036s-0.234,0.01-0.406,0.01c-0.145,0-0.262-0.003-0.348-0.01s-0.152-0.02-0.203-0.039
			c-0.051-0.019-0.086-0.043-0.105-0.072c-0.021-0.029-0.039-0.064-0.053-0.105l-0.598-1.492c-0.072-0.169-0.143-0.318-0.213-0.449
			c-0.068-0.131-0.145-0.24-0.229-0.328c-0.086-0.088-0.182-0.154-0.293-0.199c-0.109-0.044-0.236-0.066-0.381-0.066h-0.424v2.545
			c0,0.035-0.012,0.065-0.033,0.094c-0.023,0.027-0.061,0.05-0.111,0.066c-0.053,0.018-0.121,0.031-0.207,0.042
			c-0.086,0.01-0.195,0.015-0.33,0.015c-0.131,0-0.24-0.005-0.328-0.015c-0.088-0.011-0.158-0.024-0.209-0.042
			c-0.053-0.017-0.088-0.039-0.109-0.066c-0.02-0.028-0.029-0.059-0.029-0.094v-6.066c0-0.151,0.037-0.261,0.115-0.328
			s0.174-0.101,0.287-0.101h1.729c0.176,0,0.32,0.003,0.434,0.01c0.115,0.007,0.219,0.016,0.311,0.026
			c0.27,0.038,0.51,0.103,0.727,0.196c0.215,0.093,0.396,0.214,0.547,0.363c0.148,0.15,0.264,0.327,0.344,0.532
			c0.078,0.205,0.117,0.439,0.117,0.705c0,0.224-0.027,0.428-0.084,0.611c-0.057,0.185-0.141,0.349-0.25,0.493
			c-0.111,0.145-0.246,0.271-0.408,0.377c-0.162,0.107-0.346,0.193-0.553,0.259c0.1,0.048,0.193,0.106,0.281,0.175
			c0.088,0.069,0.17,0.152,0.248,0.251c0.076,0.098,0.15,0.21,0.219,0.336c0.068,0.125,0.137,0.268,0.201,0.426l0.563,1.316
			c0.053,0.131,0.086,0.227,0.104,0.287C156.541,54.671,156.551,54.719,156.551,54.753z M154.799,50.22
			c0-0.221-0.049-0.406-0.148-0.558c-0.102-0.152-0.264-0.259-0.492-0.32c-0.068-0.018-0.146-0.031-0.234-0.042
			c-0.088-0.01-0.209-0.015-0.363-0.015h-0.609v1.895h0.691c0.193,0,0.361-0.023,0.506-0.069c0.145-0.047,0.266-0.112,0.361-0.196
			c0.098-0.085,0.17-0.186,0.217-0.303C154.775,50.495,154.799,50.364,154.799,50.22z"/>
	</g>
	<g>
		<path d="M160.895,54.691c-0.018,0.059-0.039,0.105-0.066,0.142s-0.072,0.063-0.135,0.083c-0.063,0.019-0.146,0.03-0.254,0.036
			c-0.105,0.005-0.246,0.007-0.418,0.007c-0.137,0-0.256,0-0.354-0.002s-0.182-0.006-0.25-0.013s-0.125-0.018-0.168-0.031
			s-0.08-0.031-0.107-0.052c-0.029-0.021-0.053-0.046-0.068-0.075s-0.029-0.065-0.043-0.11l-1.988-5.923
			c-0.041-0.124-0.066-0.222-0.074-0.294c-0.01-0.073,0.008-0.127,0.051-0.163s0.115-0.059,0.219-0.067s0.248-0.013,0.434-0.013
			c0.158,0,0.283,0.004,0.373,0.011s0.158,0.019,0.205,0.036c0.049,0.017,0.082,0.043,0.102,0.077s0.037,0.077,0.055,0.129
			l1.627,5.153h0.004l1.596-5.127c0.014-0.059,0.031-0.106,0.053-0.143c0.02-0.036,0.055-0.064,0.105-0.085
			c0.049-0.021,0.121-0.034,0.215-0.041c0.092-0.007,0.219-0.011,0.381-0.011c0.158,0,0.281,0.005,0.369,0.016
			c0.088,0.01,0.148,0.035,0.182,0.075c0.031,0.039,0.043,0.095,0.031,0.167c-0.014,0.072-0.039,0.169-0.08,0.289L160.895,54.691z"
			/>
	</g>
	<g>
		<path d="M165.236,54.742c0,0.035-0.012,0.065-0.033,0.094c-0.023,0.027-0.061,0.05-0.111,0.066
			c-0.051,0.018-0.121,0.031-0.207,0.042c-0.086,0.01-0.195,0.015-0.33,0.015c-0.131,0-0.24-0.005-0.328-0.015
			c-0.088-0.011-0.158-0.024-0.209-0.042c-0.051-0.017-0.088-0.039-0.111-0.066c-0.021-0.028-0.033-0.059-0.033-0.094v-6.31
			c0-0.034,0.012-0.065,0.033-0.093c0.023-0.027,0.061-0.05,0.113-0.067c0.055-0.017,0.123-0.031,0.209-0.041
			c0.086-0.011,0.195-0.016,0.326-0.016c0.135,0,0.244,0.005,0.33,0.016c0.086,0.01,0.156,0.024,0.207,0.041
			c0.051,0.018,0.088,0.04,0.111,0.067c0.021,0.027,0.033,0.059,0.033,0.093V54.742z"/>
		<path d="M171.314,53.916c0,0.087-0.004,0.159-0.008,0.22c-0.006,0.061-0.014,0.112-0.023,0.155s-0.025,0.08-0.041,0.11
			c-0.018,0.031-0.045,0.066-0.084,0.106c-0.037,0.039-0.109,0.09-0.219,0.152c-0.109,0.062-0.24,0.121-0.398,0.178
			c-0.156,0.057-0.334,0.104-0.537,0.143c-0.201,0.037-0.418,0.057-0.652,0.057c-0.457,0-0.871-0.071-1.238-0.212
			c-0.369-0.141-0.682-0.352-0.941-0.633c-0.258-0.28-0.455-0.631-0.594-1.051c-0.137-0.42-0.205-0.908-0.205-1.466
			c0-0.568,0.074-1.072,0.227-1.514c0.15-0.44,0.363-0.811,0.635-1.109c0.271-0.3,0.598-0.527,0.979-0.682
			c0.381-0.155,0.799-0.232,1.258-0.232c0.186,0,0.365,0.016,0.537,0.046c0.172,0.031,0.33,0.071,0.477,0.122
			c0.146,0.05,0.279,0.107,0.396,0.173c0.115,0.065,0.197,0.121,0.244,0.168c0.047,0.046,0.078,0.085,0.096,0.115
			c0.018,0.031,0.031,0.071,0.041,0.119c0.012,0.048,0.018,0.105,0.023,0.171s0.008,0.146,0.008,0.242
			c0,0.104-0.004,0.191-0.01,0.264c-0.008,0.072-0.02,0.131-0.037,0.176c-0.018,0.044-0.037,0.077-0.061,0.098
			c-0.025,0.021-0.053,0.031-0.084,0.031c-0.051,0-0.117-0.03-0.195-0.091c-0.08-0.06-0.182-0.127-0.307-0.201
			c-0.127-0.074-0.277-0.142-0.449-0.201c-0.176-0.061-0.383-0.091-0.623-0.091c-0.266,0-0.502,0.055-0.711,0.163
			c-0.207,0.108-0.385,0.263-0.531,0.465c-0.146,0.201-0.258,0.444-0.332,0.73c-0.076,0.285-0.115,0.607-0.115,0.966
			c0,0.392,0.041,0.732,0.123,1.02c0.08,0.287,0.195,0.524,0.346,0.71c0.148,0.186,0.33,0.324,0.541,0.416
			c0.213,0.091,0.451,0.137,0.715,0.137c0.242,0,0.449-0.028,0.625-0.086c0.176-0.057,0.326-0.119,0.453-0.188
			c0.125-0.068,0.229-0.13,0.309-0.186c0.082-0.055,0.145-0.083,0.189-0.083c0.033,0,0.063,0.008,0.082,0.021
			c0.021,0.014,0.037,0.041,0.053,0.082c0.014,0.042,0.023,0.1,0.029,0.173C171.311,53.693,171.314,53.793,171.314,53.916z"/>
	</g>
	<g>
		<path d="M176.352,54.396c0,0.1-0.004,0.184-0.012,0.251c-0.01,0.066-0.021,0.121-0.039,0.162s-0.039,0.071-0.064,0.091
			c-0.025,0.019-0.055,0.028-0.086,0.028h-3.355c-0.113,0-0.209-0.034-0.287-0.101c-0.078-0.067-0.115-0.177-0.115-0.328v-5.824
			c0-0.151,0.037-0.261,0.115-0.328s0.174-0.101,0.287-0.101h3.336c0.029,0,0.059,0.009,0.082,0.025
			c0.023,0.018,0.045,0.048,0.063,0.091c0.016,0.043,0.029,0.098,0.037,0.165c0.01,0.067,0.014,0.152,0.014,0.256
			c0,0.096-0.004,0.178-0.014,0.245c-0.008,0.067-0.021,0.121-0.037,0.162c-0.018,0.042-0.039,0.072-0.063,0.091
			s-0.053,0.028-0.082,0.028h-2.387v1.632h2.02c0.031,0,0.059,0.01,0.086,0.028c0.025,0.019,0.047,0.048,0.064,0.088
			c0.016,0.039,0.029,0.093,0.037,0.16c0.01,0.066,0.014,0.148,0.014,0.245c0,0.1-0.004,0.183-0.014,0.248
			c-0.008,0.065-0.021,0.117-0.037,0.157c-0.018,0.039-0.039,0.068-0.064,0.085c-0.027,0.018-0.055,0.026-0.086,0.026h-2.02v1.885
			h2.406c0.031,0,0.061,0.009,0.086,0.028c0.025,0.019,0.047,0.049,0.064,0.09s0.029,0.096,0.039,0.163
			C176.348,54.213,176.352,54.297,176.352,54.396z"/>
	</g>
	<g>
		<path d="M181.457,52.925c0,0.352-0.064,0.659-0.195,0.925c-0.131,0.265-0.309,0.486-0.531,0.663
			c-0.225,0.178-0.486,0.311-0.785,0.4c-0.301,0.09-0.621,0.134-0.961,0.134c-0.23,0-0.445-0.019-0.643-0.057
			c-0.199-0.038-0.373-0.083-0.525-0.137c-0.15-0.054-0.277-0.109-0.379-0.168s-0.174-0.11-0.219-0.154
			c-0.045-0.045-0.076-0.109-0.096-0.194c-0.02-0.084-0.029-0.205-0.029-0.363c0-0.107,0.004-0.196,0.012-0.269
			c0.006-0.072,0.018-0.131,0.033-0.176s0.035-0.077,0.063-0.096c0.025-0.019,0.055-0.028,0.09-0.028
			c0.047,0,0.115,0.028,0.203,0.085s0.201,0.12,0.338,0.188c0.139,0.069,0.303,0.132,0.494,0.188s0.412,0.085,0.664,0.085
			c0.164,0,0.313-0.02,0.443-0.059c0.131-0.04,0.242-0.096,0.332-0.168c0.092-0.072,0.162-0.162,0.211-0.269
			c0.047-0.106,0.072-0.226,0.072-0.356c0-0.151-0.043-0.281-0.125-0.39s-0.189-0.205-0.322-0.289
			c-0.133-0.085-0.283-0.164-0.451-0.238c-0.17-0.073-0.344-0.152-0.521-0.234c-0.18-0.083-0.354-0.177-0.523-0.281
			c-0.168-0.105-0.318-0.23-0.451-0.377s-0.24-0.319-0.322-0.52c-0.082-0.199-0.125-0.438-0.125-0.718
			c0-0.319,0.061-0.602,0.18-0.844c0.117-0.243,0.277-0.444,0.48-0.604c0.201-0.16,0.438-0.279,0.711-0.358
			c0.275-0.079,0.564-0.119,0.871-0.119c0.158,0,0.316,0.013,0.475,0.036c0.158,0.024,0.307,0.057,0.443,0.099
			c0.139,0.041,0.26,0.087,0.367,0.139s0.178,0.095,0.213,0.13c0.033,0.034,0.057,0.063,0.068,0.087
			c0.012,0.024,0.023,0.057,0.031,0.096c0.008,0.04,0.016,0.09,0.018,0.15c0.004,0.06,0.006,0.135,0.006,0.225
			c0,0.1-0.002,0.184-0.008,0.253c-0.006,0.068-0.014,0.125-0.025,0.17s-0.029,0.077-0.053,0.099c-0.021,0.021-0.053,0.03-0.09,0.03
			s-0.098-0.023-0.18-0.072c-0.084-0.048-0.186-0.101-0.305-0.157c-0.121-0.057-0.262-0.108-0.42-0.155
			c-0.158-0.046-0.332-0.069-0.521-0.069c-0.146,0-0.275,0.019-0.387,0.055c-0.109,0.036-0.201,0.086-0.275,0.149
			s-0.129,0.141-0.166,0.229c-0.035,0.09-0.055,0.185-0.055,0.284c0,0.148,0.041,0.276,0.121,0.385
			c0.082,0.108,0.189,0.205,0.326,0.289s0.289,0.163,0.463,0.237c0.172,0.074,0.348,0.152,0.525,0.235
			c0.18,0.082,0.355,0.177,0.527,0.281c0.172,0.105,0.326,0.23,0.459,0.377c0.135,0.146,0.244,0.318,0.326,0.517
			C181.416,52.423,181.457,52.656,181.457,52.925z"/>
	</g>
	<g>
		<path d="M186.971,47.864c-0.289,0.672-0.508,1.364-0.656,2.079c-0.146,0.714-0.221,1.446-0.221,2.197
			c0,0.753,0.074,1.485,0.225,2.196c0.148,0.711,0.365,1.407,0.648,2.089c0.02,0.055,0.029,0.103,0.029,0.143
			c0,0.039-0.018,0.072-0.057,0.101c-0.037,0.027-0.096,0.048-0.172,0.062c-0.078,0.014-0.186,0.021-0.324,0.021
			c-0.096,0-0.178-0.003-0.246-0.01c-0.07-0.007-0.127-0.017-0.174-0.028c-0.047-0.013-0.082-0.028-0.107-0.047
			c-0.027-0.019-0.045-0.04-0.055-0.064c-0.186-0.358-0.348-0.719-0.486-1.082c-0.137-0.363-0.252-0.729-0.344-1.1
			c-0.09-0.37-0.158-0.743-0.203-1.12s-0.066-0.761-0.066-1.149c0-0.386,0.023-0.767,0.068-1.144
			c0.047-0.377,0.117-0.751,0.209-1.12c0.094-0.37,0.209-0.738,0.344-1.103c0.137-0.365,0.295-0.729,0.479-1.09
			c0.006-0.018,0.02-0.032,0.041-0.047c0.02-0.014,0.051-0.026,0.092-0.038c0.043-0.013,0.098-0.021,0.168-0.026
			c0.072-0.005,0.162-0.008,0.271-0.008c0.125,0,0.227,0.007,0.305,0.019c0.08,0.012,0.141,0.03,0.182,0.054
			c0.041,0.024,0.064,0.056,0.068,0.094C186.994,47.778,186.988,47.82,186.971,47.864z"/>
		<path d="M192.805,50.276c0,0.375-0.059,0.707-0.176,0.996c-0.115,0.289-0.287,0.533-0.51,0.73
			c-0.225,0.198-0.498,0.349-0.824,0.452c-0.324,0.104-0.709,0.155-1.148,0.155h-0.559v2.132c0,0.035-0.01,0.065-0.033,0.094
			c-0.021,0.027-0.059,0.05-0.111,0.066c-0.051,0.018-0.119,0.031-0.205,0.042c-0.088,0.01-0.197,0.015-0.332,0.015
			c-0.131,0-0.24-0.005-0.328-0.015c-0.086-0.011-0.156-0.024-0.209-0.042c-0.051-0.017-0.088-0.039-0.107-0.066
			c-0.021-0.028-0.031-0.059-0.031-0.094v-6.01c0-0.162,0.043-0.283,0.127-0.364s0.195-0.121,0.332-0.121h1.576
			c0.158,0,0.309,0.006,0.451,0.018c0.143,0.013,0.314,0.038,0.514,0.078c0.199,0.039,0.402,0.112,0.607,0.219
			c0.205,0.107,0.379,0.242,0.523,0.405c0.145,0.164,0.254,0.354,0.33,0.573S192.805,50.004,192.805,50.276z M191.385,50.374
			c0-0.233-0.041-0.427-0.123-0.578s-0.184-0.264-0.305-0.336s-0.248-0.117-0.379-0.137c-0.133-0.019-0.27-0.028-0.412-0.028h-0.578
			v2.267h0.609c0.217,0,0.398-0.029,0.545-0.088c0.146-0.058,0.266-0.14,0.359-0.245c0.094-0.104,0.164-0.23,0.211-0.377
			C191.361,50.705,191.385,50.546,191.385,50.374z"/>
		<path d="M197.186,54.691c-0.018,0.059-0.041,0.105-0.068,0.142s-0.072,0.063-0.135,0.083c-0.061,0.019-0.145,0.03-0.252,0.036
			c-0.107,0.005-0.246,0.007-0.418,0.007c-0.139,0-0.256,0-0.354-0.002c-0.1-0.002-0.182-0.006-0.252-0.013
			c-0.068-0.007-0.123-0.018-0.166-0.031s-0.08-0.031-0.109-0.052s-0.051-0.046-0.066-0.075s-0.031-0.065-0.045-0.11l-1.988-5.923
			c-0.041-0.124-0.066-0.222-0.074-0.294c-0.008-0.073,0.008-0.127,0.051-0.163s0.117-0.059,0.221-0.067s0.248-0.013,0.434-0.013
			c0.158,0,0.281,0.004,0.371,0.011s0.158,0.019,0.207,0.036c0.049,0.017,0.082,0.043,0.102,0.077
			c0.018,0.034,0.035,0.077,0.053,0.129l1.627,5.153h0.006l1.596-5.127c0.014-0.059,0.031-0.106,0.051-0.143
			c0.021-0.036,0.057-0.064,0.105-0.085c0.051-0.021,0.121-0.034,0.215-0.041s0.221-0.011,0.383-0.011
			c0.158,0,0.281,0.005,0.369,0.016c0.088,0.01,0.146,0.035,0.18,0.075c0.033,0.039,0.043,0.095,0.031,0.167
			s-0.039,0.169-0.08,0.289L197.186,54.691z"/>
	</g>
	<g>
		<path d="M204.658,48.805c0,0.1-0.004,0.185-0.014,0.256c-0.008,0.07-0.021,0.127-0.039,0.17c-0.016,0.043-0.037,0.075-0.064,0.096
			c-0.025,0.021-0.053,0.031-0.084,0.031h-1.674v5.385c0,0.035-0.012,0.065-0.033,0.094c-0.023,0.027-0.059,0.05-0.111,0.066
			c-0.051,0.018-0.121,0.031-0.209,0.042c-0.088,0.01-0.197,0.015-0.328,0.015s-0.24-0.005-0.328-0.015
			c-0.088-0.011-0.156-0.024-0.209-0.042c-0.051-0.017-0.088-0.039-0.111-0.066c-0.021-0.028-0.033-0.059-0.033-0.094v-5.385h-1.672
			c-0.035,0-0.064-0.011-0.088-0.031c-0.025-0.021-0.045-0.053-0.063-0.096s-0.031-0.1-0.039-0.17
			c-0.008-0.071-0.014-0.156-0.014-0.256c0-0.104,0.006-0.191,0.014-0.264s0.021-0.13,0.039-0.173s0.037-0.074,0.063-0.093
			c0.023-0.02,0.053-0.028,0.088-0.028h4.709c0.031,0,0.059,0.009,0.084,0.028c0.027,0.019,0.049,0.05,0.064,0.093
			c0.018,0.043,0.031,0.101,0.039,0.173C204.654,48.613,204.658,48.701,204.658,48.805z"/>
	</g>
	<g>
		<path d="M207.506,52.15c0,0.389-0.021,0.772-0.066,1.149s-0.113,0.75-0.203,1.12c-0.092,0.37-0.205,0.736-0.342,1.1
			c-0.135,0.363-0.297,0.724-0.482,1.082c-0.01,0.024-0.029,0.046-0.055,0.064s-0.063,0.034-0.107,0.047
			c-0.047,0.012-0.105,0.021-0.174,0.028s-0.15,0.01-0.248,0.01c-0.141,0-0.25-0.007-0.328-0.021
			c-0.076-0.014-0.135-0.034-0.172-0.062c-0.039-0.028-0.057-0.062-0.057-0.101c0-0.04,0.01-0.088,0.031-0.143
			c0.285-0.675,0.502-1.369,0.652-2.083c0.15-0.715,0.225-1.449,0.225-2.202c0-0.751-0.074-1.483-0.223-2.197
			c-0.146-0.715-0.367-1.407-0.66-2.079c-0.018-0.044-0.023-0.086-0.018-0.123c0.004-0.038,0.029-0.069,0.072-0.094
			c0.043-0.023,0.104-0.042,0.18-0.054c0.078-0.012,0.18-0.019,0.309-0.019c0.105,0,0.193,0.003,0.262,0.008
			c0.07,0.006,0.127,0.014,0.172,0.026c0.043,0.012,0.076,0.024,0.094,0.038c0.02,0.015,0.035,0.029,0.045,0.047
			c0.357,0.723,0.629,1.453,0.816,2.192C207.414,50.625,207.506,51.38,207.506,52.15z"/>
	</g>
	<g>
		<path d="M214.904,54.36c0,0.104-0.006,0.19-0.014,0.261s-0.021,0.129-0.039,0.176s-0.039,0.08-0.064,0.101
			s-0.055,0.031-0.09,0.031h-3.063c-0.113,0-0.209-0.034-0.285-0.101c-0.078-0.067-0.117-0.177-0.117-0.328v-6.067
			c0-0.034,0.012-0.065,0.033-0.093c0.023-0.027,0.061-0.05,0.111-0.067c0.051-0.017,0.121-0.031,0.209-0.041
			c0.088-0.011,0.197-0.016,0.328-0.016c0.135,0,0.244,0.005,0.33,0.016c0.086,0.01,0.156,0.024,0.207,0.041
			c0.051,0.018,0.088,0.04,0.111,0.067c0.021,0.027,0.033,0.059,0.033,0.093v5.375h2.102c0.035,0,0.064,0.01,0.09,0.028
			c0.025,0.02,0.047,0.051,0.064,0.094s0.031,0.1,0.039,0.17S214.904,54.257,214.904,54.36z"/>
	</g>
	<g>
		<path d="M219.426,48.805c0,0.1-0.004,0.185-0.012,0.256c-0.01,0.07-0.021,0.127-0.039,0.17s-0.039,0.075-0.064,0.096
			s-0.055,0.031-0.086,0.031h-1.672v5.385c0,0.035-0.012,0.065-0.035,0.094c-0.021,0.027-0.059,0.05-0.109,0.066
			c-0.053,0.018-0.123,0.031-0.209,0.042c-0.088,0.01-0.197,0.015-0.328,0.015s-0.24-0.005-0.328-0.015
			c-0.088-0.011-0.158-0.024-0.209-0.042c-0.053-0.017-0.09-0.039-0.111-0.066c-0.023-0.028-0.033-0.059-0.033-0.094v-5.385h-1.674
			c-0.035,0-0.064-0.011-0.088-0.031s-0.045-0.053-0.063-0.096c-0.016-0.043-0.029-0.1-0.037-0.17
			c-0.01-0.071-0.014-0.156-0.014-0.256c0-0.104,0.004-0.191,0.014-0.264c0.008-0.072,0.021-0.13,0.037-0.173
			c0.018-0.043,0.039-0.074,0.063-0.093c0.023-0.02,0.053-0.028,0.088-0.028h4.709c0.031,0,0.061,0.009,0.086,0.028
			c0.025,0.019,0.047,0.05,0.064,0.093s0.029,0.101,0.039,0.173C219.422,48.613,219.426,48.701,219.426,48.805z"/>
	</g>
	<g>
		<path d="M225.818,51.489c0,0.613-0.08,1.137-0.24,1.572s-0.389,0.791-0.689,1.066c-0.299,0.275-0.664,0.478-1.092,0.606
			c-0.428,0.13-0.939,0.194-1.531,0.194h-1.596c-0.113,0-0.209-0.034-0.285-0.101c-0.078-0.067-0.117-0.177-0.117-0.328v-5.824
			c0-0.151,0.039-0.261,0.117-0.328c0.076-0.067,0.172-0.101,0.285-0.101h1.715c0.596,0,1.1,0.069,1.516,0.209
			c0.414,0.14,0.764,0.346,1.049,0.619c0.283,0.274,0.5,0.612,0.646,1.015C225.744,50.493,225.818,50.959,225.818,51.489z
			 M224.414,51.536c0-0.316-0.037-0.611-0.111-0.883c-0.074-0.272-0.193-0.508-0.355-0.708c-0.164-0.199-0.375-0.355-0.631-0.467
			c-0.256-0.112-0.592-0.168-1.01-0.168h-0.686v4.544h0.707c0.371,0,0.686-0.048,0.939-0.145s0.467-0.242,0.639-0.437
			c0.17-0.194,0.297-0.437,0.381-0.726S224.414,51.922,224.414,51.536z"/>
	</g>
	<g>
		<path d="M228.201,54.185c0,0.32-0.055,0.536-0.168,0.646c-0.111,0.11-0.311,0.165-0.602,0.165c-0.289,0-0.488-0.054-0.598-0.162
			c-0.111-0.108-0.166-0.314-0.166-0.617c0-0.323,0.057-0.54,0.168-0.65s0.314-0.165,0.607-0.165c0.285,0,0.482,0.054,0.594,0.162
			C228.146,53.671,228.201,53.879,228.201,54.185z"/>
	</g>
</g>
</svg>
