<?xml version="1.0"?>
<svg xmlns="http://www.w3.org/2000/svg" height="512px" viewBox="0 -53 512 512" width="512px"><path d="m504.515625 330.945312h-39.425781v-188.554687l8.074218 3.695313c-.050781.566406-.089843 1.136718-.089843 1.714843 0 10.730469 8.734375 19.460938 19.464843 19.460938 10.730469 0 19.460938-8.730469 19.460938-19.460938s-8.730469-19.460937-19.460938-19.460937c-4.707031 0-9.03125 1.679687-12.398437 4.472656l-15.050781-6.886719v-106.40625c0-7.136719-5.804688-12.941406-12.941406-12.941406h-34.996094c-7.136719 0-12.941406 5.804687-12.941406 12.941406v78.546875l-28.324219-12.960937c-2.390625-1.09375-5.175781-.855469-7.34375.628906l-19.910157 13.636719c-20.460937-57.828125-75.679687-99.371094-140.425781-99.371094-82.109375 0-148.910156 66.800781-148.910156 148.910156 0 14.96875 2.226563 29.421875 6.355469 43.0625l-24.1875 19.113282c-3.261719-1.84375-7.019532-2.902344-11.023438-2.902344-12.382812 0-22.457031 10.074218-22.457031 22.457031s10.074219 22.453125 22.457031 22.453125c12.382813 0 22.457032-10.070312 22.457032-22.453125 0-2.917969-.566407-5.703125-1.582032-8.261719l19.699219-15.5625c13.269531 31.324219 36.96875 57.191406 66.714844 73.242188v50.886718h-27.945313v-45.945312c0-7.136719-5.804687-12.941406-12.941406-12.941406h-34.996094c-7.136718 0-12.941406 5.804687-12.941406 12.941406v45.945312h-41.421875c-4.132813 0-7.484375 3.351563-7.484375 7.484376 0 4.132812 3.351562 7.484374 7.484375 7.484374h293.589844l31.808593 49.539063c3.027344 4.714844 7.714844 7.972656 13.1875 9.164063 1.503907.328124 3.015626.488281 4.515626.488281 3.972656 0 7.871093-1.132813 11.296874-3.332031l12.246094-7.863282c9.738282-6.253906 12.574219-19.265625 6.320313-29l-12.195313-18.996094h136.261719c4.132813 0 7.484375-3.351562 7.484375-7.484374 0-4.132813-3.351562-7.484376-7.484375-7.484376zm-11.976563-187.636718c2.476563 0 4.488282 2.015625 4.488282 4.492187 0 2.476563-2.011719 4.492188-4.488282 4.492188-2.476562 0-4.492187-2.015625-4.492187-4.492188 0-2.476562 2.015625-4.492187 4.492187-4.492187zm-462.097656 94.816406c-4.128906 0-7.484375-3.359375-7.484375-7.484375 0-4.128906 3.355469-7.488281 7.484375-7.488281 1.855469 0 3.554688.683594 4.863282 1.808594.082031.113281.15625.230468.242187.339843.304687.386719.648437.726563 1.007813 1.035157.859374 1.21875 1.371093 2.703124 1.371093 4.304687 0 4.125-3.355469 7.484375-7.484375 7.484375zm64.375 92.820312h-30.941406v-43.914062h30.941406zm266.476563-129.75v129.75h-2.652344l-28.285156-44.050781v-52.917969c7.046875-10.089843 12.875-21.085937 17.273437-32.78125zm-177.652344 129.75h-30.9375v-43.863281c9.839844 3.96875 20.195313 6.910157 30.9375 8.699219zm42.917969 0h-27.945313v-33.441406c3.171875.203125 6.367188.316406 9.589844.316406 6.214844 0 12.339844-.386718 18.355469-1.132812zm-18.355469-48.097656c-73.855469 0-133.9375-60.082031-133.9375-133.9375 0-73.855468 60.082031-133.9375 133.9375-133.9375 59.652344 0 110.3125 39.199219 127.59375 93.1875l-9.285156 6.359375c-14.921875-51.246093-62.308594-88.804687-118.308594-88.804687-67.929687 0-123.195313 55.265625-123.195313 123.195312 0 10.292969 1.277344 20.296875 3.664063 29.859375.054687.304688.132813.601563.222656.898438 13.695313 53.097656 61.992188 92.441406 119.308594 92.441406 67.929687 0 123.199219-55.265625 123.199219-123.199219 0-6.332031-.484375-12.550781-1.410156-18.628906l9.742187-6.671875c1.574219 8.195313 2.410156 16.652344 2.410156 25.300781 0 73.855469-60.085937 133.9375-133.941406 133.9375zm25.839844-134.296875c4.136719 0 7.484375-3.351562 7.484375-7.484375v-19.714844h30.941406v34.167969.019531 80.394532c-9.289062 6.878906-19.71875 12.304687-30.941406 15.945312v-65.003906c0-.007812 0-.011719 0-.019531v-15.847657c0-4.136718-3.347656-7.488281-7.484375-7.488281s-7.484375 3.351563-7.484375 7.488281v11.964844l-18.867188 12.921875-9.078125-5.066406v-62.523437c0-7.132813-5.804687-12.941407-12.941406-12.941407h-35c-7.136719 0-12.941406 5.808594-12.941406 12.941407v28.539062l-11.820313-6.597656c-2.640625-1.476563-5.914062-1.214844-8.289062.664062l-16.585938 13.101563c-.691406-4.9375-1.058594-9.976563-1.058594-15.101563 0-59.675781 48.550782-108.226562 108.226563-108.226562 50.925781 0 93.738281 35.355468 105.203125 82.808594l-25.96875 17.785156v-21.953125c0-7.136719-5.804688-12.941407-12.941406-12.941407h-34.996094c-7.136719 0-12.941406 5.804688-12.941406 12.941407v21.742187c0 4.132813 3.347656 7.484375 7.484375 7.484375zm-7.484375 52.566407v54.457031c-5.96875 1.023437-12.097656 1.5625-18.355469 1.5625-3.230469 0-6.429687-.152344-9.589844-.429688v-48.734375l5.832031 3.253906c1.136719.632813 2.394532.949219 3.648438.949219 1.480469 0 2.960938-.4375 4.230469-1.308593zm-73.855469-35.914063v-34.867187h30.9375v52.136718zm30.9375 34.410156v54.710938c-11.054687-2.578125-21.464844-6.855469-30.9375-12.539063v-59.4375zm-45.910156-25.621093v56.988281c-15.417969-13.261719-27.070313-30.78125-33.113281-50.714844l18.359374-14.507813zm149.707031-14.570313 28.609375-19.589844c.25 2.992188.382813 6.019531.382813 9.078125 0 28.417969-11.011719 54.308594-28.992188 73.636719zm27.945312 92.753906v11.402344l-4.460937-6.953125c1.519531-1.449219 3.003906-2.933594 4.460937-4.449219zm-42.914062 78.769531h-30.941406v-36.886718c7.519531-1.726563 14.816406-4.023438 21.855468-6.839844l9.085938 14.148438zm14.96875 0v-6.265624l4.023438 6.265624zm81.230469 46.585938c-.339844 1.566406-1.273438 2.910156-2.625 3.78125l-12.25 7.863281c-1.351563.867188-2.960938 1.15625-4.53125.816407-1.570313-.34375-2.914063-1.277344-3.78125-2.628907l-68.371094-106.476562c7.894531-4.136719 15.371094-8.960938 22.355469-14.390625l68.386718 106.5c.871094 1.351562 1.160157 2.960937.816407 4.535156zm81.453125-46.585938h-30.941406v-28.195312c0-4.136719-3.347657-7.488281-7.484376-7.488281-4.132812 0-7.484374 3.351562-7.484374 7.488281v28.195312h-27.945313v-131.777343c0-7.136719-5.804687-12.941407-12.941406-12.941407h-10.945313c3.089844-11.929687 4.734375-24.433593 4.734375-37.316406 0-11.851562-1.398437-23.382812-4.027343-34.445312l20.421874-13.984375 30.703126 14.050781v158.277344c0 4.132812 3.351562 7.484375 7.484374 7.484375 4.136719 0 7.484376-3.351563 7.484376-7.484375v-151.425782l30.941406 14.15625zm0-211.871093-30.941406-14.15625v-83.371094h30.941406zm0 0" fill="#001e35"/></svg>
