<?xml version="1.0" encoding="utf-8"?>
<!-- Generator: Adobe Illustrator 21.1.0, SVG Export Plug-In . SVG Version: 6.00 Build 0)  -->
<svg version="1.1" id="Layer_1" xmlns="http://www.w3.org/2000/svg" xmlns:xlink="http://www.w3.org/1999/xlink" x="0px" y="0px"
	 viewBox="0 0 297 297" style="enable-background:new 0 0 297 297;" xml:space="preserve">
<style type="text/css">
	.st0{fill:#FFFFFF;}
</style>
<g>
	<g>
		<g>
			<path class="st0" d="M182,221.7c-2.1,0-4.2-0.8-5.7-2.4l-28.7-28.7c-4.4,6.6-7,14.5-7,23c0,22.8,18.6,41.4,41.4,41.4
				c20.1,0,36.9-14.4,40.6-33.4L182,221.7L182,221.7z"/>
			<path class="st0" d="M182,172.3c-8.5,0-16.4,2.6-23,7l26.4,26.4h37.3C218.8,186.6,202,172.3,182,172.3z"/>
			<path class="st0" d="M247.3,33h-33.1v9.7c0,12.8-10.4,23.2-23.2,23.2h-85c-12.8,0-23.2-10.4-23.2-23.2V33H49.7
				c-4.7,0-8.6,3.8-8.6,8.6v246.9c0,4.7,3.8,8.6,8.6,8.6h197.5c4.7,0,8.6-3.8,8.6-8.6v-247C255.8,36.8,252,33,247.3,33z M66.1,90.3
				h82.4c4.4,0,8,3.6,8,8s-3.6,8-8,8H66.1c-4.4,0-8-3.6-8-8S61.7,90.3,66.1,90.3z M115.5,172.3H66.1c-4.4,0-8-3.6-8-8s3.6-8,8-8
				h49.4c4.4,0,8,3.6,8,8C123.6,168.7,120,172.3,115.5,172.3z M115.5,139.3H66.1c-4.4,0-8-3.6-8-8s3.6-8,8-8h49.4c4.4,0,8,3.6,8,8
				C123.6,135.7,120,139.3,115.5,139.3z M182,271.1c-31.7,0-57.5-25.8-57.5-57.5s25.8-57.5,57.5-57.5s57.5,25.8,57.5,57.5
				C239.4,245.3,213.6,271.1,182,271.1z"/>
			<path class="st0" d="M106,49.9h85c4,0,7.2-3.2,7.2-7.2v-19c0-4-3.2-7.2-7.2-7.2h-26c-4.4,0-8-3.6-8-8c0-4.7-3.8-8.5-8.5-8.5
				S140,3.8,140,8.5c0,4.4-3.6,8-8,8h-26c-4,0-7.2,3.2-7.2,7.2v19C98.9,46.6,102.1,49.9,106,49.9z"/>
		</g>
	</g>
</g>
</svg>
