<?xml version="1.0" encoding="utf-8"?>
<!-- Generator: Adobe Illustrator 21.1.0, SVG Export Plug-In . SVG Version: 6.00 Build 0)  -->
<svg version="1.1" id="Capa_1" xmlns="http://www.w3.org/2000/svg" xmlns:xlink="http://www.w3.org/1999/xlink" x="0px" y="0px"
	 viewBox="0 0 496 496" style="enable-background:new 0 0 496 496;" xml:space="preserve">
<style type="text/css">
	.st0{fill:#B59E5C;}
</style>
<g>
	<g>
		<path d="M432,112V0H0v456c0,22.1,17.9,40,40,40h416c22.1,0,40-17.9,40-40V112H432z M40,480c-13.2,0-24-10.8-24-24V16h400v96v40
			v304c0,9,3.1,17.3,8.2,24H40z M480,456c0,13.2-10.8,24-24,24s-24-10.8-24-24V152v-24h48V456z"/>
	</g>
</g>
<g>
	<g>
		<path d="M32,32v208h224V32H32z M240,224H48V48h192V224z"/>
	</g>
</g>
<g>
	<g>
		<path d="M384,448V320h-48v128h-32v-96h-48v96h-32V320h-48v128h-16v16h240v-16H384z M208,448h-16V336h16V448z M288,448h-16v-80h16
			V448z M368,448h-16V336h16V448z"/>
	</g>
</g>
<g>
	<g>
		<rect x="272" y="32" width="128" height="16"/>
	</g>
</g>
<g>
	<g>
		<rect x="272" y="64" width="128" height="16"/>
	</g>
</g>
<g>
	<g>
		<rect x="272" y="96" width="128" height="16"/>
	</g>
</g>
<g>
	<g>
		<rect x="272" y="128" width="128" height="16"/>
	</g>
</g>
<g>
	<g>
		<rect x="272" y="160" width="96" height="16"/>
	</g>
</g>
<g>
	<g>
		<rect x="384" y="160" width="16" height="16"/>
	</g>
</g>
<g>
	<g>
		<rect x="32" y="256" width="128" height="16"/>
	</g>
</g>
<g>
	<g>
		<rect x="32" y="288" width="128" height="16"/>
	</g>
</g>
<g>
	<g>
		<rect x="32" y="320" width="128" height="16"/>
	</g>
</g>
<g>
	<g>
		<rect x="32" y="352" width="128" height="16"/>
	</g>
</g>
<g>
	<g>
		<rect x="144" y="384" width="16" height="16"/>
	</g>
</g>
<g>
	<g>
		<rect x="32" y="384" width="96" height="16"/>
	</g>
</g>
<g>
	<g>
		<path class="st0" d="M360,256c-13.2,0-24,10.8-24,24c0,0.3,0.1,0.6,0.1,0.9l-38.2,15.3c-4.4-5-10.8-8.2-17.9-8.2
			s-13.5,3.2-17.9,8.2l-38.2-15.3c0-0.3,0.1-0.6,0.1-0.9c0-13.2-10.8-24-24-24s-24,10.8-24,24s10.8,24,24,24
			c7.2,0,13.5-3.2,17.9-8.2l38.2,15.3c0,0.3-0.1,0.6-0.1,1c0,13.2,10.8,24,24,24s24-10.8,24-24c0-0.3-0.1-0.6-0.1-0.9l38.2-15.3
			c4.4,5,10.8,8.2,17.9,8.2c13.2,0,24-10.8,24-24S373.2,256,360,256z M200,288c-4.4,0-8-3.6-8-8s3.6-8,8-8s8,3.6,8,8
			S204.4,288,200,288z M280,320c-4.4,0-8-3.6-8-8s3.6-8,8-8s8,3.6,8,8S284.4,320,280,320z M360,288c-4.4,0-8-3.6-8-8s3.6-8,8-8
			s8,3.6,8,8S364.4,288,360,288z"/>
	</g>
</g>
<g>
	<path class="st0" d="M220,124c0-35.3-28.7-64-64-64c-4.4,0-8,3.6-8,8v56c0,4.4,3.6,8,8,8h56C216.4,132,220,128.4,220,124z M164,116
		V76.7c20.1,3.4,35.9,19.2,39.3,39.3H164z"/>
	<path class="st0" d="M188,140h-48V92c0-4.4-3.6-8-8-8c-35.3,0-64,28.7-64,64s28.7,64,64,64s64-28.7,64-64
		C196,143.6,192.4,140,188,140z M132,196c-25,0-45.8-19.1-47.9-44c-2.1-24.9,15.3-47.2,39.9-51.4V148c0,4.4,3.6,8,8,8h47.3
		C175.4,179.1,155.4,196,132,196z"/>
</g>
</svg>
