<?xml version="1.0" encoding="utf-8"?>
<!-- Generator: Adobe Illustrator 21.1.0, SVG Export Plug-In . SVG Version: 6.00 Build 0)  -->
<svg version="1.1" id="Capa_1" xmlns="http://www.w3.org/2000/svg" xmlns:xlink="http://www.w3.org/1999/xlink" x="0px" y="0px"
	 viewBox="0 0 377.7 377.7" style="enable-background:new 0 0 377.7 377.7;" xml:space="preserve">
<style type="text/css">
	.st0{fill:#B59E5C;}
</style>
<g>
	<g>
		<path d="M354.3,131.1c-2-3.9-5.3-7.8-9.2-5.8c-0.2,0.1-1.1,0.6-2.6,1.3c-1.1,0.6-2.5,1.3-4.3,2.2l-147.4,75.6
			c0.2-0.7,0.3-1.4,0.5-2c2.8-6.6,44.7-180.2,44.7-180.2l-1.3-8.3l-62.4,152.9l9.1,21.7L170,215.1L54.6,274.2
			c-4.1,2.1-6.6,3.4-6.9,3.5c-3.9,2-2.7,7-0.7,10.9c2,3.9,22.2,41.5,25,46.8c6.7-2.6,7.1-6.6,4.9-10.9c-2.2-4.2-16.5-32.3-16.5-32.3
			s1-0.5,2.8-1.4l3.5-1.8l18.9,36.8l5.3-2.7l-18.9-36.8l4.5-2.3l18.9,36.8l5.3-2.7l-18.9-36.8l3.7-1.9l18.9,36.8l5.3-2.7l-18.9-36.8
			l4.5-2.3l18.9,36.8l5.3-2.7l-18.9-36.8l4.6-2.4l18.9,36.8l5.3-2.7l-18.9-36.8l4.5-2.3l18.7,36.5c-0.3,0.7-0.7,1.3-1.1,2.1
			c-8.7,18.6-5,40.1,9,52.2c2.5,2.2,5.4,4,8.4,5.4c9.9,4.6,21.1,4.6,31.6-0.1c10.3-4.5,18.7-12.9,23.7-23.7
			c7.4-15.9,5.8-33.8-3.5-46.2c-0.9-1.8-4.5-9.3-7.9-20.2l2.7-1.4l-6-11.8c-1.1-5.1-2-10.6-2.5-16.4l13.2,25.8l5.3-2.7l-18.9-36.8
			l4.5-2.3l18.9,36.8l5.3-2.7l-18.9-36.8l3.8-1.9l18.8,36.8l5.3-2.7l-18.9-36.8l4.5-2.3l18.9,36.8l5.3-2.7l-18.9-36.7l4.6-2.4
			l18.9,36.8l5.3-2.7l-18.9-36.8l4.5-2.3l18.9,36.8l5.3-2.7l-18.9-36.8l4.4-2.3l18.9,36.8l5.3-2.7L246,197.2l4.5-2.3l18.9,36.8
			l5.3-2.7l-18.8-36.8l4.6-2.4l18.9,36.8l5.3-2.7l-18.9-36.8l4.4-2.3l18.9,36.8l5.3-2.7l-18.9-36.8l4.7-2.4l18.9,36.8l5.3-2.7
			l-18.9-36.8l4.5-2.3l18.9,36.8l5.3-2.7l-18.9-36.8l3.8-1.9l18.8,36.8l5.3-2.7l-18.9-36.8l4.5-2.3l18.9,36.8l5.3-2.7l-18.9-36.8
			l4.6-2.4l18.9,36.8l5.3-2.7l-18.9-36.8l4.4-2.3l18.9,36.8l5.3-2.7l-18.9-36.8l4.7-2.4l18.9,36.8l5.3-2.7L343.8,147l2.9-1.5
			c1.8-0.9,2.8-1.4,2.8-1.4s14.4,28.1,16.5,32.3c2.1,4.2,5.6,6.3,11.7,2.4C375,173.4,356.3,135,354.3,131.1z M181.9,163.3
			c2.5-2.9,6.8-3.2,9.7-0.7c2.8,2.5,3.2,6.8,0.7,9.7c-2.5,2.9-6.8,3.2-9.7,0.7C179.7,170.5,179.4,166.2,181.9,163.3z M158.6,241.9
			l-0.3,0.7l-0.2-0.4L158.6,241.9z M152.8,244.9l2.5,4.9l-2.6,6l-4.4-8.6L152.8,244.9z M143,249.9l6.7,13.1l-2.1,5.1l-8.3-16.2
			L143,249.9z M133.9,254.6l10.6,20.7l-2.5,6l-12.5-24.5L133.9,254.6z M124.2,259.6l14.8,28.9l-2.1,5.1l-16.4-32.1L124.2,259.6z
			 M193.7,331.2c-3.7,7.9-9.8,14-17.1,17.2c-7.1,3.1-14.5,3.2-20.9,0.2c-1.9-0.9-3.8-2.1-5.4-3.5c-9.6-8.3-12-23.5-5.7-36.9
			c3.7-7.9,9.7-14,17.1-17.3c7.1-3.1,14.5-3.2,20.9-0.2c2,0.9,3.8,2.1,5.4,3.5C197.6,302.6,199.9,317.8,193.7,331.2z"/>
		<path class="st0" d="M202,181.8l134.6-79.6l-8.8,0.2c0,0-67.8,27.7-118,48.4C206.9,162.6,204.2,173.3,202,181.8z"/>
		<path class="st0" d="M65.2,244.4c0.1,0,0.1-0.1,0.2-0.1c-0.1,0.2-0.1,0.3-0.1,0.3l106.9-63.3l0.1,0l-5.2-12.5
			c-5.6,2.4-9.2,4-10,4.4c-42.1,17.3-86.5,1.7-89.7,0.5c-13.4-7-30.9-6-45.3,3.2c-10,6.4-17.2,15.8-20.3,26.6
			c-3.2,11.1-1.8,22.2,4.1,31.4c1.9,3,4.2,5.6,6.9,7.9C26.4,254.6,48,255.3,65.2,244.4z M21.1,232.9c-1.7-1.5-3.2-3.2-4.4-5.1
			c-3.8-6-4.7-13.3-2.6-20.8c2.2-7.7,7.5-14.6,14.8-19.2c12.3-7.9,27.6-7.6,37.1,0.6c1.7,1.5,3.2,3.2,4.4,5.1
			c3.8,6,4.7,13.3,2.6,20.8c-2.2,7.7-7.5,14.6-14.8,19.3C45.8,241.3,30.6,241.1,21.1,232.9z"/>
	</g>
</g>
</svg>
