<?xml version="1.0" encoding="utf-8"?>
<!-- Generator: Adobe Illustrator 21.1.0, SVG Export Plug-In . SVG Version: 6.00 Build 0)  -->
<svg version="1.1" id="Layer_1" xmlns="http://www.w3.org/2000/svg" xmlns:xlink="http://www.w3.org/1999/xlink" x="0px" y="0px"
	 viewBox="0 0 511 511" style="enable-background:new 0 0 511 511;" xml:space="preserve">
<style type="text/css">
	.st0{fill:#B59E5C;}
</style>
<path d="M8,443.2h495c4.4,0,8-3.6,8-8V107.8c0-4.4-3.6-8-8-8h-16v-24c0-4.4-3.6-8-8-8H287.5c-13.1,0-24.7,6.4-31.9,16.2
	c-7.3-9.8-18.8-16.2-31.9-16.2H31.9c-4.4,0-8,3.6-8,8c0,0.2,0.1,0.4,0.1,0.6v23.4H8c-4.4,0-8,3.6-8,8v327.4
	C0,439.6,3.6,443.2,8,443.2z M487.1,403.3V115.8h8v311.5H265c3.3-9.3,12.1-16,22.5-16h191.6C483.5,411.3,487.1,407.7,487.1,403.3z
	 M263.5,107.8c0-13.2,10.7-24,24-24h183.6v311.5H287.5c-9,0-17.3,3.1-24,8.2V107.8z M40,83.8h183.5c13.2,0,24,10.8,24,24v295.7
	c-6.7-5.1-14.9-8.2-24-8.2H40V83.8z M16,115.8h8.1v286.9c0,0.2-0.1,0.4-0.1,0.6c0,4.4,3.6,8,8,8h191.6c10.4,0,19.2,6.7,22.5,16H16
	V115.8z"/>
<path class="st0" d="M64,299.4h159.7c4.4,0,8-3.6,8-8V107.8c0-4.4-3.6-8-8-8H64c-4.4,0-8,3.6-8,8v183.7
	C56,295.9,59.6,299.4,64,299.4z M191.7,283.5H95.9v-8c0-4.4,3.5-7.9,7.9-8c0,0,0.1,0,0.1,0h22.1l14.2,7.1c0.1,0.1,0.2,0,0.3,0.1
	c1,0.4,2.1,0.7,3.2,0.7c0,0,0,0,0,0h0c0,0,0,0,0,0c1.1,0,2.2-0.3,3.2-0.7c0.1-0.1,0.2,0,0.3-0.1l14.2-7.1h22.1c0,0,0.1,0,0.1,0
	c4.4,0.1,7.9,3.6,7.9,8L191.7,283.5L191.7,283.5z M134.4,187.7h25.3c0,0,0,0,0.1,0c5.9,0,11.3,1.7,16,4.5v11.5c0,17.6-14.3,32-32,32
	c-17.6,0-31.9-14.2-32-31.8c0,0,0-0.1,0-0.1C122.3,203.7,131.1,197,134.4,187.7z M111.9,187.7v-24c0-5.9,3.2-11,8-13.7v29.7
	C119.9,184.1,116.3,187.7,111.9,187.7z M135.9,171.7v-28.6c5-2.2,10.4-3.4,15.9-3.4c22,0,40,17.9,40,39.9c0,0,0,0,0,0v4.3
	c-0.7-0.7-1.5-1.3-2.2-1.9c-0.2-0.2-0.4-0.3-0.6-0.4c-8.1-6.2-18.1-9.9-29-9.9c0,0-0.1,0-0.1,0H135.9z M151.8,250.8v3.7l-8,4l-8-4
	v-3.7c2.6,0.4,5.3,0.7,8,0.7C146.6,251.6,149.2,251.3,151.8,250.8z M72,115.8h143.7v167.7h-8v-8c0,0,0,0,0,0
	c0-13.2-10.8-23.9-24-23.9c-0.1,0-0.2,0-0.2,0h-15.7v-6.5c11.8-6.9,20.5-18.6,23.1-32.5c0.5,2.3,0.8,4.6,0.8,7c0,0,0,0.1,0,0.1v7.9
	c0,4.4,3.6,8,8,8c4.4,0,8-3.6,8-8v-47.9c0,0,0,0,0-0.1c0-30.8-25.1-55.8-55.9-55.8c0,0,0,0,0,0s0,0,0,0c0,0,0,0,0,0s0,0,0,0
	c-10.5,0-20.6,3-29.5,8.6C107.3,135,96,148.1,96,163.7v31.7c0,0.1-0.1,0.2-0.1,0.3c0,0.1,0.1,0.2,0.1,0.3v7.4c0,0.1-0.1,0.2-0.1,0.3
	c0,17.7,9.7,33.2,24,41.5v6.5h-15.7c-0.1,0-0.2,0-0.2,0c-13.2,0-23.9,10.7-24,23.9v0v8h-8V115.8z"/>
<path class="st0" d="M287.6,299.4h23.8c0,0,0,0,0.1,0s0.1,0,0.1,0h111.7c0,0,0.1,0,0.1,0c0,0,0,0,0.1,0h23.8c4.4,0,8-3.6,8-8V107.8
	c0-4.4-3.6-8-8-8H287.6c-4.4,0-8,3.6-8,8v183.7C279.6,295.9,283.2,299.4,287.6,299.4z M343.5,245.1v6.5h-15.7c-0.1,0-0.2,0-0.2,0
	c-2.8,0-5.5,0.6-8.1,1.5v-57.3h0v8C319.5,221.3,329.1,236.8,343.5,245.1z M367.4,235.6c-17.6,0-32-14.3-32-32v-8h63.9v8
	c0,0.1,0,0.1,0,0.2C399.3,221.3,385,235.6,367.4,235.6z M375.4,250.8v3.7l-8,4l-8-4v-3.7c2.6,0.4,5.3,0.7,8,0.7
	C370.1,251.6,372.8,251.3,375.4,250.8z M320.2,179.7c3.8-22.6,23.5-39.9,47.2-39.9c23.7,0,43.4,17.3,47.2,39.9H320.2z M415.3,283.5
	h-95.8v-8c0-4.4,3.5-7.9,7.9-8c0,0,0.1,0,0.1,0h22.1l14.2,7.1c0.1,0.1,0.2,0,0.3,0.1c1,0.4,2.1,0.7,3.2,0.7c0,0,0,0,0,0h0
	c0,0,0,0,0,0c1.1,0,2.2-0.3,3.2-0.7c0.1-0.1,0.2,0,0.3-0.1l14.2-7.1h22.1c0,0,0.1,0,0.1,0c4.4,0.1,7.9,3.6,7.9,8L415.3,283.5
	L415.3,283.5z M415.4,253c-2.5-0.9-5.2-1.5-8.1-1.5c-0.1,0-0.2,0-0.2,0h-15.7v-6.5c14.3-8.3,24-23.8,24-41.5c0-0.1-0.1-0.2-0.1-0.3
	v-7.7h0.1V253z M295.6,115.8h143.7v167.7h-7.9v-95.8c0-35.2-28.7-63.9-63.9-63.9s-63.9,28.7-63.9,63.9v95.8h-7.9V115.8z"/>
<path d="M64,331.4h159.7c4.4,0,8-3.6,8-8c0-4.4-3.6-8-8-8H64c-4.4,0-8,3.6-8,8C56,327.8,59.6,331.4,64,331.4z"/>
<path d="M64,355.4h159.7c4.4,0,8-3.6,8-8c0-4.4-3.6-8-8-8H64c-4.4,0-8,3.6-8,8C56,351.8,59.6,355.4,64,355.4z"/>
<path d="M151.8,363.4H64c-4.4,0-8,3.6-8,8c0,4.4,3.6,8,8,8h87.8c4.4,0,8-3.6,8-8C159.8,367,156.2,363.4,151.8,363.4z"/>
<path d="M287.6,331.4h159.7c4.4,0,8-3.6,8-8c0-4.4-3.6-8-8-8H287.6c-4.4,0-8,3.6-8,8C279.6,327.8,283.2,331.4,287.6,331.4z"/>
<path d="M287.6,355.4h159.7c4.4,0,8-3.6,8-8c0-4.4-3.6-8-8-8H287.6c-4.4,0-8,3.6-8,8C279.6,351.8,283.2,355.4,287.6,355.4z"/>
<path d="M375.4,379.4c4.4,0,8-3.6,8-8c0-4.4-3.6-8-8-8h-87.8c-4.4,0-8,3.6-8,8c0,4.4,3.6,8,8,8H375.4z"/>
</svg>
